{"canvas_config":{"background":null,"height":1920,"ratio":"original","width":1440},"color_space":0,"config":{"adjust_max_index":1,"attachment_info":[],"combination_max_index":1,"export_range":null,"extract_audio_last_index":1,"lyrics_recognition_id":"","lyrics_sync":true,"lyrics_taskinfo":[],"maintrack_adsorb":true,"material_save_mode":0,"multi_language_current":"none","multi_language_list":[],"multi_language_main":"none","multi_language_mode":"none","original_sound_last_index":1,"record_audio_last_index":1,"sticker_max_index":1,"subtitle_keywords_config":null,"subtitle_recognition_id":"","subtitle_sync":true,"subtitle_taskinfo":[],"system_font_list":[],"video_mute":false,"zoom_info_params":null},"cover":null,"create_time":0,"duration":65000000,"extra_info":null,"fps":30.0,"free_render_index_mode_on":false,"group_container":null,"id":"DD70B2E7-8932-42f1-9275-57093C68E20A","is_drop_frame_timecode":false,"keyframe_graph_list":[],"keyframes":{"adjusts":[],"audios":[],"effects":[],"filters":[],"handwrites":[],"stickers":[],"texts":[],"videos":[]},"last_modified_platform":{"app_id":359289,"app_source":"cc","app_version":"5.9.1","device_id":"4f4a4b51bbec43c5ac7243b8dd53aef0","hard_disk_id":"cef5f929b0449d472faf52db11a52d60","mac_address":"9bcfd7b256c77a6a7f35673a891788f6","os":"windows","os_version":"10.0.19045"},"lyrics_effects":[],"materials":{"ai_translates":[],"audio_balances":[],"audio_effects":[],"audio_fades":[],"audio_track_indexes":[],"audios":[],"beats":[],"canvases":[{"album_image":"","blur":0.0,"color":"","id":"60D430F5-365A-4785-A006-C1138B7E3917","image":"","image_id":"","image_name":"","source_platform":0,"team_id":"","type":"canvas_color"},{"album_image":"","blur":0.0,"color":"","id":"672A8885-D093-4936-BF7A-1464D1CA96EC","image":"","image_id":"","image_name":"","source_platform":0,"team_id":"","type":"canvas_color"},{"album_image":"","blur":0.0,"color":"","id":"4E3A7CEE-72F4-40be-9298-CD8255CEFC28","image":"","image_id":"","image_name":"","source_platform":0,"team_id":"","type":"canvas_color"},{"album_image":"","blur":0.0,"color":"","id":"9BB593AA-FB5D-4dc2-BA2D-B98EE90938F2","image":"","image_id":"","image_name":"","source_platform":0,"team_id":"","type":"canvas_color"},{"album_image":"","blur":0.0,"color":"","id":"34FB1354-2EDA-4eec-B602-117A35B7F2C6","image":"","image_id":"","image_name":"","source_platform":0,"team_id":"","type":"canvas_color"},{"album_image":"","blur":0.0,"color":"","id":"B772C504-B788-44e2-8986-818C7181C802","image":"","image_id":"","image_name":"","source_platform":0,"team_id":"","type":"canvas_color"},{"album_image":"","blur":0.0,"color":"","id":"62857047-6EF4-4a3e-A263-79B3DF4A541F","image":"","image_id":"","image_name":"","source_platform":0,"team_id":"","type":"canvas_color"},{"album_image":"","blur":0.0,"color":"","id":"4DEEFD70-1BE0-4f60-AE5C-EDBF1625549B","image":"","image_id":"","image_name":"","source_platform":0,"team_id":"","type":"canvas_color"},{"album_image":"","blur":0.0,"color":"","id":"882DD79D-C2DE-414f-932E-610C2B2F338E","image":"","image_id":"","image_name":"","source_platform":0,"team_id":"","type":"canvas_color"},{"album_image":"","blur":0.0,"color":"","id":"8AE8B98C-B55C-424e-8546-1ACE9EBB3A2C","image":"","image_id":"","image_name":"","source_platform":0,"team_id":"","type":"canvas_color"},{"album_image":"","blur":0.0,"color":"","id":"BF3210B3-B379-4e34-B0E5-A6EC696BB8D6","image":"","image_id":"","image_name":"","source_platform":0,"team_id":"","type":"canvas_color"},{"album_image":"","blur":0.0,"color":"","id":"D1A50882-9314-491a-B03F-A3827F48B3AE","image":"","image_id":"","image_name":"","source_platform":0,"team_id":"","type":"canvas_color"},{"album_image":"","blur":0.0,"color":"","id":"51A6D832-B9C0-431e-BFFC-02E730ACFD42","image":"","image_id":"","image_name":"","source_platform":0,"team_id":"","type":"canvas_color"}],"chromas":[],"color_curves":[],"common_mask":[],"digital_humans":[],"drafts":[],"effects":[],"flowers":[],"green_screens":[],"handwrites":[],"hsl":[],"images":[],"log_color_wheels":[],"loudnesses":[],"manual_beautys":[],"manual_deformations":[],"material_animations":[{"animations":[{"anim_adjust_params":null,"category_id":"6824","category_name":"Vào","duration":500000,"id":"6740868384637850120","material_type":"video","name":"Thu phóng 1","panel":"video","path":"C:/Users/Admin/AppData/Local/CapCut/User Data/Cache/effect/6740868384637850120/6444aa1a1706f02003f9c56c4c0757b3","platform":"all","request_id":"2025040802232491C6BD893BAEE2813CC9","resource_id":"6740868384637850120","source_platform":1,"start":0,"third_resource_id":"6740868384637850120","type":"in"},{"anim_adjust_params":null,"category_id":"6825","category_name":"Ra","duration":900000,"id":"7229983825080619522","material_type":"video","name":"Khói","panel":"video","path":"C:/Users/Admin/AppData/Local/CapCut/User Data/Cache/effect/7229983825080619522/e70e26e7aa770d0deedca54e3eac0323","platform":"all","request_id":"2025040802232491C6BD893BAEE2813CC9","resource_id":"7229983825080619522","source_platform":1,"start":4100000,"third_resource_id":"7229983825080619522","type":"out"}],"id":"B5DB7669-FCBC-4acb-9788-688EA7B10117","multi_language_current":"none","type":"sticker_animation"},{"animations":[{"anim_adjust_params":null,"category_id":"6824","category_name":"Vào","duration":440000,"id":"7211044701367964162","material_type":"video","name":"Nháy hiện","panel":"video","path":"C:/Users/Admin/AppData/Local/CapCut/User Data/Cache/effect/7211044701367964162/6a680c49cd11a05f3eb0e5a3fed165f7","platform":"all","request_id":"2025040802232491C6BD893BAEE2813CC9","resource_id":"7211044701367964162","source_platform":1,"start":0,"third_resource_id":"7211044701367964162","type":"in"},{"anim_adjust_params":null,"category_id":"6825","category_name":"Ra","duration":1600000,"id":"7290860832538235393","material_type":"video","name":"TV cũ","panel":"video","path":"C:/Users/Admin/AppData/Local/CapCut/User Data/Cache/effect/7290860832538235393/50d67778f791d56b12ab5c6da30c37b6","platform":"all","request_id":"2025040802232491C6BD893BAEE2813CC9","resource_id":"7290860832538235393","source_platform":1,"start":3400000,"third_resource_id":"7290860832538235393","type":"out"}],"id":"ED2D0BE1-186B-4cf2-870F-1589BBD3A28D","multi_language_current":"none","type":"sticker_animation"},{"animations":[{"anim_adjust_params":null,"category_id":"6824","category_name":"Vào","duration":700000,"id":"7274915008939561473","material_type":"video","name":"Swoosh","panel":"video","path":"C:/Users/Admin/AppData/Local/CapCut/User Data/Cache/effect/7274915008939561473/ecaffca7c7e1d7744fa296a29f65b366","platform":"all","request_id":"2025040802232491C6BD893BAEE2813CC9","resource_id":"7274915008939561473","source_platform":1,"start":0,"third_resource_id":"7274915008939561473","type":"in"},{"anim_adjust_params":null,"category_id":"6825","category_name":"Ra","duration":250000,"id":"7211044782489997825","material_type":"video","name":"Nháy tắt","panel":"video","path":"C:/Users/Admin/AppData/Local/CapCut/User Data/Cache/effect/7211044782489997825/f170e9020eaf5a6f6180c6fd30775400","platform":"all","request_id":"2025040802232491C6BD893BAEE2813CC9","resource_id":"7211044782489997825","source_platform":1,"start":4750000,"third_resource_id":"7211044782489997825","type":"out"}],"id":"C5CE81B1-9212-4701-8744-469175A99F79","multi_language_current":"none","type":"sticker_animation"},{"animations":[{"anim_adjust_params":null,"category_id":"6826","category_name":"Kết hợp","duration":5000000,"id":"6779083172429697544","material_type":"video","name":"Thu phóng 2","panel":"video","path":"C:/Users/Admin/AppData/Local/CapCut/User Data/Cache/effect/6779083172429697544/60cdf52561e071069e0a3fdcb5b704c7","platform":"all","request_id":"2025040802232491C6BD893BAEE2813CC9","resource_id":"6779083172429697544","source_platform":1,"start":0,"third_resource_id":"6779083172429697544","type":"group"}],"id":"AC36CFB9-4D0D-4b3e-B212-B4B1960444AF","multi_language_current":"none","type":"sticker_animation"},{"animations":[{"anim_adjust_params":null,"category_id":"6826","category_name":"Kết hợp","duration":5000000,"id":"6795425591014199822","material_type":"video","name":"Nảy 1","panel":"video","path":"C:/Users/Admin/AppData/Local/CapCut/User Data/Cache/effect/6795425591014199822/67f82884f9d3a9069479925989811c35","platform":"all","request_id":"2025040802232491C6BD893BAEE2813CC9","resource_id":"6795425591014199822","source_platform":1,"start":0,"third_resource_id":"6795425591014199822","type":"group"}],"id":"48CB7022-47E2-45de-9E02-75248A31870D","multi_language_current":"none","type":"sticker_animation"},{"animations":[{"anim_adjust_params":null,"category_id":"6826","category_name":"Kết hợp","duration":5000000,"id":"6772415063216099848","material_type":"video","name":"Thu phóng bên phải","panel":"video","path":"C:/Users/Admin/AppData/Local/CapCut/User Data/Cache/effect/6772415063216099848/64d73a2a8d4b857816f103d1d0496adc","platform":"all","request_id":"2025040802232491C6BD893BAEE2813CC9","resource_id":"6772415063216099848","source_platform":1,"start":0,"third_resource_id":"6772415063216099848","type":"group"}],"id":"4596A587-E390-4f57-920E-C51CEE2BB1D7","multi_language_current":"none","type":"sticker_animation"},{"animations":[{"anim_adjust_params":null,"category_id":"6824","category_name":"Vào","duration":800000,"id":"7247032446242263553","material_type":"video","name":"Hình tròn","panel":"video","path":"C:/Users/Admin/AppData/Local/CapCut/User Data/Cache/effect/7247032446242263553/53189ccb894b9a51373d010cb84682ca","platform":"all","request_id":"2025040802232491C6BD893BAEE2813CC9","resource_id":"7247032446242263553","source_platform":1,"start":0,"third_resource_id":"7247032446242263553","type":"in"},{"anim_adjust_params":null,"category_id":"6825","category_name":"Ra","duration":500000,"id":"6798333787986989576","material_type":"video","name":"Trượt xuống","panel":"video","path":"C:/Users/Admin/AppData/Local/CapCut/User Data/Cache/effect/6798333787986989576/c1f3d6530ffa1646b03fbaa22266f04b","platform":"all","request_id":"2025040802232491C6BD893BAEE2813CC9","resource_id":"6798333787986989576","source_platform":1,"start":4500000,"third_resource_id":"6798333787986989576","type":"out"}],"id":"481C481E-FAE4-4f31-B1B5-C5A69C34BBBB","multi_language_current":"none","type":"sticker_animation"},{"animations":[{"anim_adjust_params":null,"category_id":"6824","category_name":"Vào","duration":1333333,"id":"7362014299243418129","material_type":"video","name":"Khối lập phương","panel":"video","path":"C:/Users/Admin/AppData/Local/CapCut/User Data/Cache/effect/7362014299243418129/301b4ffff8510c87b7174161b2642ca3","platform":"all","request_id":"2025040802232491C6BD893BAEE2813CC9","resource_id":"7362014299243418129","source_platform":1,"start":0,"third_resource_id":"7362014299243418129","type":"in"},{"anim_adjust_params":null,"category_id":"6825","category_name":"Ra","duration":800000,"id":"7381818811248284176","material_type":"video","name":"Xung nhịp","panel":"video","path":"C:/Users/Admin/AppData/Local/CapCut/User Data/Cache/effect/7381818811248284176/f916cc354e9c5b80698d612397a0c4f7","platform":"all","request_id":"2025040802232491C6BD893BAEE2813CC9","resource_id":"7381818811248284176","source_platform":1,"start":4200000,"third_resource_id":"7381818811248284176","type":"out"}],"id":"461185CA-6222-4427-B862-F0D149C7A3AD","multi_language_current":"none","type":"sticker_animation"},{"animations":[{"anim_adjust_params":null,"category_id":"6824","category_name":"Vào","duration":440000,"id":"7211044701367964162","material_type":"video","name":"Nháy hiện","panel":"video","path":"C:/Users/Admin/AppData/Local/CapCut/User Data/Cache/effect/7211044701367964162/6a680c49cd11a05f3eb0e5a3fed165f7","platform":"all","request_id":"2025040802232491C6BD893BAEE2813CC9","resource_id":"7211044701367964162","source_platform":1,"start":0,"third_resource_id":"7211044701367964162","type":"in"},{"anim_adjust_params":null,"category_id":"6825","category_name":"Ra","duration":1670000,"id":"7488915982379961601","material_type":"video","name":"Biểu tượng tiền kéo ra","panel":"video","path":"C:/Users/Admin/AppData/Local/CapCut/User Data/Cache/effect/7488915982379961601/c3872f82b246a864f2b63c82fcc3e5f9","platform":"all","request_id":"2025040802232491C6BD893BAEE2813CC9","resource_id":"7488915982379961601","source_platform":1,"start":3330000,"third_resource_id":"0","type":"out"}],"id":"78FB3CC1-13BB-40ea-A6D8-DD89A49A2BA3","multi_language_current":"none","type":"sticker_animation"},{"animations":[{"anim_adjust_params":null,"category_id":"6826","category_name":"Kết hợp","duration":5000000,"id":"6860405888784536072","material_type":"video","name":"Chuyến tàu 1","panel":"video","path":"C:/Users/Admin/AppData/Local/CapCut/User Data/Cache/effect/6860405888784536072/02b09df0a764000d55892ea96a5a5b27","platform":"all","request_id":"2025040802232491C6BD893BAEE2813CC9","resource_id":"6860405888784536072","source_platform":1,"start":0,"third_resource_id":"6860405888784536072","type":"group"}],"id":"C33AC1B5-427E-4a1a-8CD9-76B850BD7F72","multi_language_current":"none","type":"sticker_animation"},{"animations":[{"anim_adjust_params":null,"category_id":"6826","category_name":"Kết hợp","duration":5000000,"id":"6761360765925462536","material_type":"video","name":"Lắc lư","panel":"video","path":"C:/Users/Admin/AppData/Local/CapCut/User Data/Cache/effect/6761360765925462536/87049bd0502eb6e07aaba92e83b8b09d","platform":"all","request_id":"2025040802232491C6BD893BAEE2813CC9","resource_id":"6761360765925462536","source_platform":1,"start":0,"third_resource_id":"6761360765925462536","type":"group"}],"id":"2C3900F8-E0D4-4157-ACFF-872165E61F27","multi_language_current":"none","type":"sticker_animation"},{"animations":[{"anim_adjust_params":null,"category_id":"6824","category_name":"Vào","duration":500000,"id":"6798333487523828238","material_type":"video","name":"Trượt lên","panel":"video","path":"C:/Users/Admin/AppData/Local/CapCut/User Data/Cache/effect/6798333487523828238/51657913dffa9f4c5f9d4411b53611e5","platform":"all","request_id":"2025040802232491C6BD893BAEE2813CC9","resource_id":"6798333487523828238","source_platform":1,"start":0,"third_resource_id":"6798333487523828238","type":"in"},{"anim_adjust_params":null,"category_id":"6825","category_name":"Ra","duration":2000000,"id":"7441433916407288336","material_type":"video","name":"Cát vàng","panel":"video","path":"C:/Users/Admin/AppData/Local/CapCut/User Data/Cache/effect/7441433916407288336/8eb1d7a9fbcbc2c8df45affa0c13e8a9","platform":"all","request_id":"2025040802232491C6BD893BAEE2813CC9","resource_id":"7441433916407288336","source_platform":1,"start":3000000,"third_resource_id":"7441433916407288336","type":"out"}],"id":"B607C69B-E82C-48cf-B53B-F1F2F9193F98","multi_language_current":"none","type":"sticker_animation"},{"animations":[{"anim_adjust_params":null,"category_id":"6824","category_name":"Vào","duration":3000000,"id":"7464124620371661313","material_type":"video","name":"Hạt tạo thành hình trái tim","panel":"video","path":"C:/Users/Admin/AppData/Local/CapCut/User Data/Cache/effect/7464124620371661313/567e5354ca37d56d1bceb25db0b31961","platform":"all","request_id":"2025040802232491C6BD893BAEE2813CC9","resource_id":"7464124620371661313","source_platform":1,"start":0,"third_resource_id":"7464124620371661313","type":"in"},{"anim_adjust_params":null,"category_id":"6825","category_name":"Ra","duration":1670000,"id":"7488915982379961601","material_type":"video","name":"Biểu tượng tiền kéo ra","panel":"video","path":"C:/Users/Admin/AppData/Local/CapCut/User Data/Cache/effect/7488915982379961601/c3872f82b246a864f2b63c82fcc3e5f9","platform":"all","request_id":"2025040802232491C6BD893BAEE2813CC9","resource_id":"7488915982379961601","source_platform":1,"start":3330000,"third_resource_id":"0","type":"out"}],"id":"EA228D08-163A-4b4c-B232-E988A057A955","multi_language_current":"none","type":"sticker_animation"}],"material_colors":[],"multi_language_refs":[],"placeholder_infos":[{"error_path":"","error_text":"","id":"A1A5B1DB-F96C-4c3f-9F85-FF0732A256E3","meta_type":"none","res_path":"","res_text":"","type":"placeholder_info"},{"error_path":"","error_text":"","id":"50F6393E-F747-4843-BFAD-F389C175CAEF","meta_type":"none","res_path":"","res_text":"","type":"placeholder_info"},{"error_path":"","error_text":"","id":"2B5FB1C9-EEEC-4880-9DED-91E58D87FF92","meta_type":"none","res_path":"","res_text":"","type":"placeholder_info"},{"error_path":"","error_text":"","id":"5A425164-A1D3-4742-893E-4BEC956275D8","meta_type":"none","res_path":"","res_text":"","type":"placeholder_info"},{"error_path":"","error_text":"","id":"B2866720-064B-4170-82FF-2FD08456687F","meta_type":"none","res_path":"","res_text":"","type":"placeholder_info"},{"error_path":"","error_text":"","id":"D2E72AEF-E82F-4e2e-A7AD-ACBCE11EFFF3","meta_type":"none","res_path":"","res_text":"","type":"placeholder_info"},{"error_path":"","error_text":"","id":"1B647E9D-95A8-45b8-9117-920A5D5495B0","meta_type":"none","res_path":"","res_text":"","type":"placeholder_info"},{"error_path":"","error_text":"","id":"C934DA4B-08DD-4f8d-AF53-D87C51EA6236","meta_type":"none","res_path":"","res_text":"","type":"placeholder_info"},{"error_path":"","error_text":"","id":"84926A8A-4EA5-4d37-B083-3A543A362091","meta_type":"none","res_path":"","res_text":"","type":"placeholder_info"},{"error_path":"","error_text":"","id":"67E58526-4390-415f-A716-FF7E92C849F3","meta_type":"none","res_path":"","res_text":"","type":"placeholder_info"},{"error_path":"","error_text":"","id":"9CC17452-24FC-46ce-9C12-88B04652ECE4","meta_type":"none","res_path":"","res_text":"","type":"placeholder_info"},{"error_path":"","error_text":"","id":"2841C86D-F5FA-41e7-9257-235D25BFCEA6","meta_type":"none","res_path":"","res_text":"","type":"placeholder_info"},{"error_path":"","error_text":"","id":"0C6527BA-769F-4831-BCF8-8116483E2F42","meta_type":"none","res_path":"","res_text":"","type":"placeholder_info"}],"placeholders":[],"plugin_effects":[],"primary_color_wheels":[],"realtime_denoises":[],"shapes":[],"smart_crops":[],"smart_relights":[],"sound_channel_mappings":[{"audio_channel_mapping":0,"id":"6008AB07-3366-49c2-98B6-CAE1EA51CE55","is_config_open":false,"type":""},{"audio_channel_mapping":0,"id":"4CA92750-D975-4745-8D20-DD3ED9FD7A58","is_config_open":false,"type":""},{"audio_channel_mapping":0,"id":"CA972161-0B8F-48fb-911F-E67038619F60","is_config_open":false,"type":""},{"audio_channel_mapping":0,"id":"62EFFE06-0165-4ff5-ACD5-87471A4930F9","is_config_open":false,"type":""},{"audio_channel_mapping":0,"id":"8BEBC2F0-9B7C-41d8-B790-6D3F32F3A96A","is_config_open":false,"type":""},{"audio_channel_mapping":0,"id":"C6AEB626-06DB-4d2c-A0E2-922DB7E587A7","is_config_open":false,"type":""},{"audio_channel_mapping":0,"id":"D0300BAF-E2EB-460c-9BC0-0A4A16E35057","is_config_open":false,"type":""},{"audio_channel_mapping":0,"id":"A6451C7A-51DE-474b-83C2-CAE830ADD4FB","is_config_open":false,"type":""},{"audio_channel_mapping":0,"id":"CD8D86DA-0CC1-4f7e-96FB-CBDEE1AAD84F","is_config_open":false,"type":""},{"audio_channel_mapping":0,"id":"6461E3F2-8D66-49d8-8DC1-E61FF759821C","is_config_open":false,"type":""},{"audio_channel_mapping":0,"id":"5984F0AB-B619-4900-BFDD-FE95E5DBE841","is_config_open":false,"type":""},{"audio_channel_mapping":0,"id":"E14E1A65-3BF0-4df0-B8C5-50BF2DD3D780","is_config_open":false,"type":""},{"audio_channel_mapping":0,"id":"495934DA-88CF-46e6-BD12-5E3CF5D032CA","is_config_open":false,"type":""}],"speeds":[{"curve_speed":null,"id":"19BAE8DE-0A71-4615-8E51-EBEDF0A76EF1","mode":0,"speed":1.0,"type":"speed"},{"curve_speed":null,"id":"2D22611F-93B9-4c6e-8E2B-BA5EAFF92A7A","mode":0,"speed":1.0,"type":"speed"},{"curve_speed":null,"id":"2C019504-9B71-47c2-9DBB-C74BCE8874D2","mode":0,"speed":1.0,"type":"speed"},{"curve_speed":null,"id":"DC8F8A49-3FE5-4841-8CFD-EE5105230646","mode":0,"speed":1.0,"type":"speed"},{"curve_speed":null,"id":"1CCCFF5B-6FD2-4d8d-ACB5-DA6EADCC1CF9","mode":0,"speed":1.0,"type":"speed"},{"curve_speed":null,"id":"CA86090D-1896-4bc7-A804-3A1EB0007167","mode":0,"speed":1.0,"type":"speed"},{"curve_speed":null,"id":"DCFE37D9-8482-4bc6-B88F-5AA819BDB3FB","mode":0,"speed":1.0,"type":"speed"},{"curve_speed":null,"id":"9F7A7B1C-7117-4777-B07B-8E3CB96CEB3D","mode":0,"speed":1.0,"type":"speed"},{"curve_speed":null,"id":"7D0B7FE9-EE5D-434d-AD27-F1AB71B2F14C","mode":0,"speed":1.0,"type":"speed"},{"curve_speed":null,"id":"B71A331E-9E78-455f-91E0-E3C7774F7945","mode":0,"speed":1.0,"type":"speed"},{"curve_speed":null,"id":"57843B18-40D2-464e-BB6A-E970FBE6AE06","mode":0,"speed":1.0,"type":"speed"},{"curve_speed":null,"id":"E2CF8B0C-EEBD-4985-BF20-4C1A142A5DFA","mode":0,"speed":1.0,"type":"speed"},{"curve_speed":null,"id":"E3CE6411-3620-410c-A86E-75857FFA15FC","mode":0,"speed":1.0,"type":"speed"}],"stickers":[],"tail_leaders":[],"text_templates":[],"texts":[],"time_marks":[],"transitions":[],"video_effects":[],"video_trackings":[],"videos":[{"aigc_history_id":"","aigc_item_id":"","aigc_type":"none","audio_fade":null,"beauty_body_preset_id":"","beauty_face_auto_preset":{"name":"","preset_id":"","rate_map":""},"beauty_face_auto_preset_infos":[],"beauty_face_preset_infos":[],"cartoon_path":"","category_id":"","category_name":"local","check_flag":62978047,"crop":{"lower_left_x":0.0,"lower_left_y":1.0,"lower_right_x":1.0,"lower_right_y":1.0,"upper_left_x":0.0,"upper_left_y":0.0,"upper_right_x":1.0,"upper_right_y":0.0},"crop_ratio":"free","crop_scale":1.0,"duration":10800000000,"extra_type_option":0,"formula_id":"","freeze":null,"has_audio":false,"has_sound_separated":false,"height":1024,"id":"B6D5C3C2-9493-4b2a-B46E-2D415C649A98","intensifies_audio_path":"","intensifies_path":"","is_ai_generate_content":false,"is_copyright":false,"is_text_edit_overdub":false,"is_unified_beauty_mode":false,"live_photo_cover_path":"","live_photo_timestamp":-1,"local_id":"","local_material_from":"","local_material_id":"","material_id":"","material_name":"1.png","material_url":"","matting":{"custom_matting_id":"","enable_matting_stroke":false,"expansion":0,"feather":0,"flag":0,"has_use_quick_brush":false,"has_use_quick_eraser":false,"interactiveTime":[],"path":"","reverse":false,"strokes":[]},"media_path":"","multi_camera_info":null,"object_locked":null,"origin_material_id":"","path":"C:/Users/Admin/Desktop/Gaixinh/1.png","picture_from":"none","picture_set_category_id":"","picture_set_category_name":"","request_id":"","reverse_intensifies_path":"","reverse_path":"","smart_match_info":null,"smart_motion":null,"source":0,"source_platform":0,"stable":{"matrix_path":"","stable_level":0,"time_range":{"duration":0,"start":0}},"team_id":"","type":"photo","video_algorithm":{"ai_background_configs":[],"ai_expression_driven":null,"ai_motion_driven":null,"aigc_generate":null,"algorithms":[],"complement_frame_config":null,"deflicker":null,"gameplay_configs":[],"motion_blur_config":null,"mouth_shape_driver":null,"noise_reduction":null,"path":"","quality_enhance":null,"smart_complement_frame":null,"super_resolution":null,"time_range":null},"width":768},{"aigc_history_id":"","aigc_item_id":"","aigc_type":"none","audio_fade":null,"beauty_body_preset_id":"","beauty_face_auto_preset":{"name":"","preset_id":"","rate_map":""},"beauty_face_auto_preset_infos":[],"beauty_face_preset_infos":[],"cartoon_path":"","category_id":"","category_name":"local","check_flag":62978047,"crop":{"lower_left_x":0.0,"lower_left_y":1.0,"lower_right_x":1.0,"lower_right_y":1.0,"upper_left_x":0.0,"upper_left_y":0.0,"upper_right_x":1.0,"upper_right_y":0.0},"crop_ratio":"free","crop_scale":1.0,"duration":10800000000,"extra_type_option":0,"formula_id":"","freeze":null,"has_audio":false,"has_sound_separated":false,"height":1024,"id":"5DDDA0B7-4056-4937-B198-332BA3820BF4","intensifies_audio_path":"","intensifies_path":"","is_ai_generate_content":false,"is_copyright":false,"is_text_edit_overdub":false,"is_unified_beauty_mode":false,"live_photo_cover_path":"","live_photo_timestamp":-1,"local_id":"","local_material_from":"","local_material_id":"","material_id":"","material_name":"2.png","material_url":"","matting":{"custom_matting_id":"","enable_matting_stroke":false,"expansion":0,"feather":0,"flag":0,"has_use_quick_brush":false,"has_use_quick_eraser":false,"interactiveTime":[],"path":"","reverse":false,"strokes":[]},"media_path":"","multi_camera_info":null,"object_locked":null,"origin_material_id":"","path":"C:/Users/Admin/Desktop/Gaixinh/2.png","picture_from":"none","picture_set_category_id":"","picture_set_category_name":"","request_id":"","reverse_intensifies_path":"","reverse_path":"","smart_match_info":null,"smart_motion":null,"source":0,"source_platform":0,"stable":{"matrix_path":"","stable_level":0,"time_range":{"duration":0,"start":0}},"team_id":"","type":"photo","video_algorithm":{"ai_background_configs":[],"ai_expression_driven":null,"ai_motion_driven":null,"aigc_generate":null,"algorithms":[],"complement_frame_config":null,"deflicker":null,"gameplay_configs":[],"motion_blur_config":null,"mouth_shape_driver":null,"noise_reduction":null,"path":"","quality_enhance":null,"smart_complement_frame":null,"super_resolution":null,"time_range":null},"width":768},{"aigc_history_id":"","aigc_item_id":"","aigc_type":"none","audio_fade":null,"beauty_body_preset_id":"","beauty_face_auto_preset":{"name":"","preset_id":"","rate_map":""},"beauty_face_auto_preset_infos":[],"beauty_face_preset_infos":[],"cartoon_path":"","category_id":"","category_name":"local","check_flag":62978047,"crop":{"lower_left_x":0.0,"lower_left_y":1.0,"lower_right_x":1.0,"lower_right_y":1.0,"upper_left_x":0.0,"upper_left_y":0.0,"upper_right_x":1.0,"upper_right_y":0.0},"crop_ratio":"free","crop_scale":1.0,"duration":10800000000,"extra_type_option":0,"formula_id":"","freeze":null,"has_audio":false,"has_sound_separated":false,"height":1024,"id":"58F52184-F300-4732-B91B-9367F4C2061A","intensifies_audio_path":"","intensifies_path":"","is_ai_generate_content":false,"is_copyright":false,"is_text_edit_overdub":false,"is_unified_beauty_mode":false,"live_photo_cover_path":"","live_photo_timestamp":-1,"local_id":"","local_material_from":"","local_material_id":"","material_id":"","material_name":"3.png","material_url":"","matting":{"custom_matting_id":"","enable_matting_stroke":false,"expansion":0,"feather":0,"flag":0,"has_use_quick_brush":false,"has_use_quick_eraser":false,"interactiveTime":[],"path":"","reverse":false,"strokes":[]},"media_path":"","multi_camera_info":null,"object_locked":null,"origin_material_id":"","path":"C:/Users/Admin/Desktop/Gaixinh/3.png","picture_from":"none","picture_set_category_id":"","picture_set_category_name":"","request_id":"","reverse_intensifies_path":"","reverse_path":"","smart_match_info":null,"smart_motion":null,"source":0,"source_platform":0,"stable":{"matrix_path":"","stable_level":0,"time_range":{"duration":0,"start":0}},"team_id":"","type":"photo","video_algorithm":{"ai_background_configs":[],"ai_expression_driven":null,"ai_motion_driven":null,"aigc_generate":null,"algorithms":[],"complement_frame_config":null,"deflicker":null,"gameplay_configs":[],"motion_blur_config":null,"mouth_shape_driver":null,"noise_reduction":null,"path":"","quality_enhance":null,"smart_complement_frame":null,"super_resolution":null,"time_range":null},"width":768},{"aigc_history_id":"","aigc_item_id":"","aigc_type":"none","audio_fade":null,"beauty_body_preset_id":"","beauty_face_auto_preset":{"name":"","preset_id":"","rate_map":""},"beauty_face_auto_preset_infos":[],"beauty_face_preset_infos":[],"cartoon_path":"","category_id":"","category_name":"local","check_flag":62978047,"crop":{"lower_left_x":0.0,"lower_left_y":1.0,"lower_right_x":1.0,"lower_right_y":1.0,"upper_left_x":0.0,"upper_left_y":0.0,"upper_right_x":1.0,"upper_right_y":0.0},"crop_ratio":"free","crop_scale":1.0,"duration":10800000000,"extra_type_option":0,"formula_id":"","freeze":null,"has_audio":false,"has_sound_separated":false,"height":1024,"id":"9ADAFAC4-7BE6-4804-9B40-8E143B604A0E","intensifies_audio_path":"","intensifies_path":"","is_ai_generate_content":false,"is_copyright":false,"is_text_edit_overdub":false,"is_unified_beauty_mode":false,"live_photo_cover_path":"","live_photo_timestamp":-1,"local_id":"","local_material_from":"","local_material_id":"","material_id":"","material_name":"4.png","material_url":"","matting":{"custom_matting_id":"","enable_matting_stroke":false,"expansion":0,"feather":0,"flag":0,"has_use_quick_brush":false,"has_use_quick_eraser":false,"interactiveTime":[],"path":"","reverse":false,"strokes":[]},"media_path":"","multi_camera_info":null,"object_locked":null,"origin_material_id":"","path":"C:/Users/Admin/Desktop/Gaixinh/4.png","picture_from":"none","picture_set_category_id":"","picture_set_category_name":"","request_id":"","reverse_intensifies_path":"","reverse_path":"","smart_match_info":null,"smart_motion":null,"source":0,"source_platform":0,"stable":{"matrix_path":"","stable_level":0,"time_range":{"duration":0,"start":0}},"team_id":"","type":"photo","video_algorithm":{"ai_background_configs":[],"ai_expression_driven":null,"ai_motion_driven":null,"aigc_generate":null,"algorithms":[],"complement_frame_config":null,"deflicker":null,"gameplay_configs":[],"motion_blur_config":null,"mouth_shape_driver":null,"noise_reduction":null,"path":"","quality_enhance":null,"smart_complement_frame":null,"super_resolution":null,"time_range":null},"width":768},{"aigc_history_id":"","aigc_item_id":"","aigc_type":"none","audio_fade":null,"beauty_body_preset_id":"","beauty_face_auto_preset":{"name":"","preset_id":"","rate_map":""},"beauty_face_auto_preset_infos":[],"beauty_face_preset_infos":[],"cartoon_path":"","category_id":"","category_name":"local","check_flag":62978047,"crop":{"lower_left_x":0.0,"lower_left_y":1.0,"lower_right_x":1.0,"lower_right_y":1.0,"upper_left_x":0.0,"upper_left_y":0.0,"upper_right_x":1.0,"upper_right_y":0.0},"crop_ratio":"free","crop_scale":1.0,"duration":10800000000,"extra_type_option":0,"formula_id":"","freeze":null,"has_audio":false,"has_sound_separated":false,"height":1024,"id":"4DD55ABF-1528-45df-A4E4-9584E50EEF76","intensifies_audio_path":"","intensifies_path":"","is_ai_generate_content":false,"is_copyright":false,"is_text_edit_overdub":false,"is_unified_beauty_mode":false,"live_photo_cover_path":"","live_photo_timestamp":-1,"local_id":"","local_material_from":"","local_material_id":"","material_id":"","material_name":"5.png","material_url":"","matting":{"custom_matting_id":"","enable_matting_stroke":false,"expansion":0,"feather":0,"flag":0,"has_use_quick_brush":false,"has_use_quick_eraser":false,"interactiveTime":[],"path":"","reverse":false,"strokes":[]},"media_path":"","multi_camera_info":null,"object_locked":null,"origin_material_id":"","path":"C:/Users/Admin/Desktop/Gaixinh/5.png","picture_from":"none","picture_set_category_id":"","picture_set_category_name":"","request_id":"","reverse_intensifies_path":"","reverse_path":"","smart_match_info":null,"smart_motion":null,"source":0,"source_platform":0,"stable":{"matrix_path":"","stable_level":0,"time_range":{"duration":0,"start":0}},"team_id":"","type":"photo","video_algorithm":{"ai_background_configs":[],"ai_expression_driven":null,"ai_motion_driven":null,"aigc_generate":null,"algorithms":[],"complement_frame_config":null,"deflicker":null,"gameplay_configs":[],"motion_blur_config":null,"mouth_shape_driver":null,"noise_reduction":null,"path":"","quality_enhance":null,"smart_complement_frame":null,"super_resolution":null,"time_range":null},"width":768},{"aigc_history_id":"","aigc_item_id":"","aigc_type":"none","audio_fade":null,"beauty_body_preset_id":"","beauty_face_auto_preset":{"name":"","preset_id":"","rate_map":""},"beauty_face_auto_preset_infos":[],"beauty_face_preset_infos":[],"cartoon_path":"","category_id":"","category_name":"local","check_flag":62978047,"crop":{"lower_left_x":0.0,"lower_left_y":1.0,"lower_right_x":1.0,"lower_right_y":1.0,"upper_left_x":0.0,"upper_left_y":0.0,"upper_right_x":1.0,"upper_right_y":0.0},"crop_ratio":"free","crop_scale":1.0,"duration":10800000000,"extra_type_option":0,"formula_id":"","freeze":null,"has_audio":false,"has_sound_separated":false,"height":1024,"id":"CE97CB43-B21F-421d-A645-F1C1842CD183","intensifies_audio_path":"","intensifies_path":"","is_ai_generate_content":false,"is_copyright":false,"is_text_edit_overdub":false,"is_unified_beauty_mode":false,"live_photo_cover_path":"","live_photo_timestamp":-1,"local_id":"","local_material_from":"","local_material_id":"","material_id":"","material_name":"6.png","material_url":"","matting":{"custom_matting_id":"","enable_matting_stroke":false,"expansion":0,"feather":0,"flag":0,"has_use_quick_brush":false,"has_use_quick_eraser":false,"interactiveTime":[],"path":"","reverse":false,"strokes":[]},"media_path":"","multi_camera_info":null,"object_locked":null,"origin_material_id":"","path":"C:/Users/Admin/Desktop/Gaixinh/6.png","picture_from":"none","picture_set_category_id":"","picture_set_category_name":"","request_id":"","reverse_intensifies_path":"","reverse_path":"","smart_match_info":null,"smart_motion":null,"source":0,"source_platform":0,"stable":{"matrix_path":"","stable_level":0,"time_range":{"duration":0,"start":0}},"team_id":"","type":"photo","video_algorithm":{"ai_background_configs":[],"ai_expression_driven":null,"ai_motion_driven":null,"aigc_generate":null,"algorithms":[],"complement_frame_config":null,"deflicker":null,"gameplay_configs":[],"motion_blur_config":null,"mouth_shape_driver":null,"noise_reduction":null,"path":"","quality_enhance":null,"smart_complement_frame":null,"super_resolution":null,"time_range":null},"width":768},{"aigc_history_id":"","aigc_item_id":"","aigc_type":"none","audio_fade":null,"beauty_body_preset_id":"","beauty_face_auto_preset":{"name":"","preset_id":"","rate_map":""},"beauty_face_auto_preset_infos":[],"beauty_face_preset_infos":[],"cartoon_path":"","category_id":"","category_name":"local","check_flag":62978047,"crop":{"lower_left_x":0.0,"lower_left_y":1.0,"lower_right_x":1.0,"lower_right_y":1.0,"upper_left_x":0.0,"upper_left_y":0.0,"upper_right_x":1.0,"upper_right_y":0.0},"crop_ratio":"free","crop_scale":1.0,"duration":10800000000,"extra_type_option":0,"formula_id":"","freeze":null,"has_audio":false,"has_sound_separated":false,"height":1024,"id":"8248AFA3-2E64-4b4a-B0FE-990319B20242","intensifies_audio_path":"","intensifies_path":"","is_ai_generate_content":false,"is_copyright":false,"is_text_edit_overdub":false,"is_unified_beauty_mode":false,"live_photo_cover_path":"","live_photo_timestamp":-1,"local_id":"","local_material_from":"","local_material_id":"","material_id":"","material_name":"7.png","material_url":"","matting":{"custom_matting_id":"","enable_matting_stroke":false,"expansion":0,"feather":0,"flag":0,"has_use_quick_brush":false,"has_use_quick_eraser":false,"interactiveTime":[],"path":"","reverse":false,"strokes":[]},"media_path":"","multi_camera_info":null,"object_locked":null,"origin_material_id":"","path":"C:/Users/Admin/Desktop/Gaixinh/7.png","picture_from":"none","picture_set_category_id":"","picture_set_category_name":"","request_id":"","reverse_intensifies_path":"","reverse_path":"","smart_match_info":null,"smart_motion":null,"source":0,"source_platform":0,"stable":{"matrix_path":"","stable_level":0,"time_range":{"duration":0,"start":0}},"team_id":"","type":"photo","video_algorithm":{"ai_background_configs":[],"ai_expression_driven":null,"ai_motion_driven":null,"aigc_generate":null,"algorithms":[],"complement_frame_config":null,"deflicker":null,"gameplay_configs":[],"motion_blur_config":null,"mouth_shape_driver":null,"noise_reduction":null,"path":"","quality_enhance":null,"smart_complement_frame":null,"super_resolution":null,"time_range":null},"width":768},{"aigc_history_id":"","aigc_item_id":"","aigc_type":"none","audio_fade":null,"beauty_body_preset_id":"","beauty_face_auto_preset":{"name":"","preset_id":"","rate_map":""},"beauty_face_auto_preset_infos":[],"beauty_face_preset_infos":[],"cartoon_path":"","category_id":"","category_name":"local","check_flag":62978047,"crop":{"lower_left_x":0.0,"lower_left_y":1.0,"lower_right_x":1.0,"lower_right_y":1.0,"upper_left_x":0.0,"upper_left_y":0.0,"upper_right_x":1.0,"upper_right_y":0.0},"crop_ratio":"free","crop_scale":1.0,"duration":10800000000,"extra_type_option":0,"formula_id":"","freeze":null,"has_audio":false,"has_sound_separated":false,"height":1024,"id":"427E7579-AC8F-41c2-A013-5EC8E9290108","intensifies_audio_path":"","intensifies_path":"","is_ai_generate_content":false,"is_copyright":false,"is_text_edit_overdub":false,"is_unified_beauty_mode":false,"live_photo_cover_path":"","live_photo_timestamp":-1,"local_id":"","local_material_from":"","local_material_id":"","material_id":"","material_name":"8.png","material_url":"","matting":{"custom_matting_id":"","enable_matting_stroke":false,"expansion":0,"feather":0,"flag":0,"has_use_quick_brush":false,"has_use_quick_eraser":false,"interactiveTime":[],"path":"","reverse":false,"strokes":[]},"media_path":"","multi_camera_info":null,"object_locked":null,"origin_material_id":"","path":"C:/Users/Admin/Desktop/Gaixinh/8.png","picture_from":"none","picture_set_category_id":"","picture_set_category_name":"","request_id":"","reverse_intensifies_path":"","reverse_path":"","smart_match_info":null,"smart_motion":null,"source":0,"source_platform":0,"stable":{"matrix_path":"","stable_level":0,"time_range":{"duration":0,"start":0}},"team_id":"","type":"photo","video_algorithm":{"ai_background_configs":[],"ai_expression_driven":null,"ai_motion_driven":null,"aigc_generate":null,"algorithms":[],"complement_frame_config":null,"deflicker":null,"gameplay_configs":[],"motion_blur_config":null,"mouth_shape_driver":null,"noise_reduction":null,"path":"","quality_enhance":null,"smart_complement_frame":null,"super_resolution":null,"time_range":null},"width":768},{"aigc_history_id":"","aigc_item_id":"","aigc_type":"none","audio_fade":null,"beauty_body_preset_id":"","beauty_face_auto_preset":{"name":"","preset_id":"","rate_map":""},"beauty_face_auto_preset_infos":[],"beauty_face_preset_infos":[],"cartoon_path":"","category_id":"","category_name":"local","check_flag":62978047,"crop":{"lower_left_x":0.0,"lower_left_y":1.0,"lower_right_x":1.0,"lower_right_y":1.0,"upper_left_x":0.0,"upper_left_y":0.0,"upper_right_x":1.0,"upper_right_y":0.0},"crop_ratio":"free","crop_scale":1.0,"duration":10800000000,"extra_type_option":0,"formula_id":"","freeze":null,"has_audio":false,"has_sound_separated":false,"height":1024,"id":"082CFC74-6099-4092-849A-4DD0E4349E0F","intensifies_audio_path":"","intensifies_path":"","is_ai_generate_content":false,"is_copyright":false,"is_text_edit_overdub":false,"is_unified_beauty_mode":false,"live_photo_cover_path":"","live_photo_timestamp":-1,"local_id":"","local_material_from":"","local_material_id":"","material_id":"","material_name":"9.png","material_url":"","matting":{"custom_matting_id":"","enable_matting_stroke":false,"expansion":0,"feather":0,"flag":0,"has_use_quick_brush":false,"has_use_quick_eraser":false,"interactiveTime":[],"path":"","reverse":false,"strokes":[]},"media_path":"","multi_camera_info":null,"object_locked":null,"origin_material_id":"","path":"C:/Users/Admin/Desktop/Gaixinh/9.png","picture_from":"none","picture_set_category_id":"","picture_set_category_name":"","request_id":"","reverse_intensifies_path":"","reverse_path":"","smart_match_info":null,"smart_motion":null,"source":0,"source_platform":0,"stable":{"matrix_path":"","stable_level":0,"time_range":{"duration":0,"start":0}},"team_id":"","type":"photo","video_algorithm":{"ai_background_configs":[],"ai_expression_driven":null,"ai_motion_driven":null,"aigc_generate":null,"algorithms":[],"complement_frame_config":null,"deflicker":null,"gameplay_configs":[],"motion_blur_config":null,"mouth_shape_driver":null,"noise_reduction":null,"path":"","quality_enhance":null,"smart_complement_frame":null,"super_resolution":null,"time_range":null},"width":768},{"aigc_history_id":"","aigc_item_id":"","aigc_type":"none","audio_fade":null,"beauty_body_preset_id":"","beauty_face_auto_preset":{"name":"","preset_id":"","rate_map":""},"beauty_face_auto_preset_infos":[],"beauty_face_preset_infos":[],"cartoon_path":"","category_id":"","category_name":"local","check_flag":62978047,"crop":{"lower_left_x":0.0,"lower_left_y":1.0,"lower_right_x":1.0,"lower_right_y":1.0,"upper_left_x":0.0,"upper_left_y":0.0,"upper_right_x":1.0,"upper_right_y":0.0},"crop_ratio":"free","crop_scale":1.0,"duration":10800000000,"extra_type_option":0,"formula_id":"","freeze":null,"has_audio":false,"has_sound_separated":false,"height":1024,"id":"41C23103-564F-4cd8-B7D4-7D44EBF14CA6","intensifies_audio_path":"","intensifies_path":"","is_ai_generate_content":false,"is_copyright":false,"is_text_edit_overdub":false,"is_unified_beauty_mode":false,"live_photo_cover_path":"","live_photo_timestamp":-1,"local_id":"","local_material_from":"","local_material_id":"","material_id":"","material_name":"10.png","material_url":"","matting":{"custom_matting_id":"","enable_matting_stroke":false,"expansion":0,"feather":0,"flag":0,"has_use_quick_brush":false,"has_use_quick_eraser":false,"interactiveTime":[],"path":"","reverse":false,"strokes":[]},"media_path":"","multi_camera_info":null,"object_locked":null,"origin_material_id":"","path":"C:/Users/Admin/Desktop/Gaixinh/10.png","picture_from":"none","picture_set_category_id":"","picture_set_category_name":"","request_id":"","reverse_intensifies_path":"","reverse_path":"","smart_match_info":null,"smart_motion":null,"source":0,"source_platform":0,"stable":{"matrix_path":"","stable_level":0,"time_range":{"duration":0,"start":0}},"team_id":"","type":"photo","video_algorithm":{"ai_background_configs":[],"ai_expression_driven":null,"ai_motion_driven":null,"aigc_generate":null,"algorithms":[],"complement_frame_config":null,"deflicker":null,"gameplay_configs":[],"motion_blur_config":null,"mouth_shape_driver":null,"noise_reduction":null,"path":"","quality_enhance":null,"smart_complement_frame":null,"super_resolution":null,"time_range":null},"width":768},{"aigc_history_id":"","aigc_item_id":"","aigc_type":"none","audio_fade":null,"beauty_body_preset_id":"","beauty_face_auto_preset":{"name":"","preset_id":"","rate_map":""},"beauty_face_auto_preset_infos":[],"beauty_face_preset_infos":[],"cartoon_path":"","category_id":"","category_name":"local","check_flag":62978047,"crop":{"lower_left_x":0.0,"lower_left_y":1.0,"lower_right_x":1.0,"lower_right_y":1.0,"upper_left_x":0.0,"upper_left_y":0.0,"upper_right_x":1.0,"upper_right_y":0.0},"crop_ratio":"free","crop_scale":1.0,"duration":10800000000,"extra_type_option":0,"formula_id":"","freeze":null,"has_audio":false,"has_sound_separated":false,"height":1024,"id":"43CC45BD-DA89-4acb-9A1A-28DDCF99E908","intensifies_audio_path":"","intensifies_path":"","is_ai_generate_content":false,"is_copyright":false,"is_text_edit_overdub":false,"is_unified_beauty_mode":false,"live_photo_cover_path":"","live_photo_timestamp":-1,"local_id":"","local_material_from":"","local_material_id":"","material_id":"","material_name":"11.png","material_url":"","matting":{"custom_matting_id":"","enable_matting_stroke":false,"expansion":0,"feather":0,"flag":0,"has_use_quick_brush":false,"has_use_quick_eraser":false,"interactiveTime":[],"path":"","reverse":false,"strokes":[]},"media_path":"","multi_camera_info":null,"object_locked":null,"origin_material_id":"","path":"C:/Users/Admin/Desktop/Gaixinh/11.png","picture_from":"none","picture_set_category_id":"","picture_set_category_name":"","request_id":"","reverse_intensifies_path":"","reverse_path":"","smart_match_info":null,"smart_motion":null,"source":0,"source_platform":0,"stable":{"matrix_path":"","stable_level":0,"time_range":{"duration":0,"start":0}},"team_id":"","type":"photo","video_algorithm":{"ai_background_configs":[],"ai_expression_driven":null,"ai_motion_driven":null,"aigc_generate":null,"algorithms":[],"complement_frame_config":null,"deflicker":null,"gameplay_configs":[],"motion_blur_config":null,"mouth_shape_driver":null,"noise_reduction":null,"path":"","quality_enhance":null,"smart_complement_frame":null,"super_resolution":null,"time_range":null},"width":768},{"aigc_history_id":"","aigc_item_id":"","aigc_type":"none","audio_fade":null,"beauty_body_preset_id":"","beauty_face_auto_preset":{"name":"","preset_id":"","rate_map":""},"beauty_face_auto_preset_infos":[],"beauty_face_preset_infos":[],"cartoon_path":"","category_id":"","category_name":"local","check_flag":62978047,"crop":{"lower_left_x":0.0,"lower_left_y":1.0,"lower_right_x":1.0,"lower_right_y":1.0,"upper_left_x":0.0,"upper_left_y":0.0,"upper_right_x":1.0,"upper_right_y":0.0},"crop_ratio":"free","crop_scale":1.0,"duration":10800000000,"extra_type_option":0,"formula_id":"","freeze":null,"has_audio":false,"has_sound_separated":false,"height":1024,"id":"6B3B1B27-6522-423f-AF07-3677E0AD158D","intensifies_audio_path":"","intensifies_path":"","is_ai_generate_content":false,"is_copyright":false,"is_text_edit_overdub":false,"is_unified_beauty_mode":false,"live_photo_cover_path":"","live_photo_timestamp":-1,"local_id":"","local_material_from":"","local_material_id":"","material_id":"","material_name":"12.png","material_url":"","matting":{"custom_matting_id":"","enable_matting_stroke":false,"expansion":0,"feather":0,"flag":0,"has_use_quick_brush":false,"has_use_quick_eraser":false,"interactiveTime":[],"path":"","reverse":false,"strokes":[]},"media_path":"","multi_camera_info":null,"object_locked":null,"origin_material_id":"","path":"C:/Users/Admin/Desktop/Gaixinh/12.png","picture_from":"none","picture_set_category_id":"","picture_set_category_name":"","request_id":"","reverse_intensifies_path":"","reverse_path":"","smart_match_info":null,"smart_motion":null,"source":0,"source_platform":0,"stable":{"matrix_path":"","stable_level":0,"time_range":{"duration":0,"start":0}},"team_id":"","type":"photo","video_algorithm":{"ai_background_configs":[],"ai_expression_driven":null,"ai_motion_driven":null,"aigc_generate":null,"algorithms":[],"complement_frame_config":null,"deflicker":null,"gameplay_configs":[],"motion_blur_config":null,"mouth_shape_driver":null,"noise_reduction":null,"path":"","quality_enhance":null,"smart_complement_frame":null,"super_resolution":null,"time_range":null},"width":768},{"aigc_history_id":"","aigc_item_id":"","aigc_type":"none","audio_fade":null,"beauty_body_preset_id":"","beauty_face_auto_preset":{"name":"","preset_id":"","rate_map":""},"beauty_face_auto_preset_infos":[],"beauty_face_preset_infos":[],"cartoon_path":"","category_id":"","category_name":"local","check_flag":62978047,"crop":{"lower_left_x":0.0,"lower_left_y":1.0,"lower_right_x":1.0,"lower_right_y":1.0,"upper_left_x":0.0,"upper_left_y":0.0,"upper_right_x":1.0,"upper_right_y":0.0},"crop_ratio":"free","crop_scale":1.0,"duration":10800000000,"extra_type_option":0,"formula_id":"","freeze":null,"has_audio":false,"has_sound_separated":false,"height":1024,"id":"58242BBE-A0A9-4581-94DA-D59F5413490E","intensifies_audio_path":"","intensifies_path":"","is_ai_generate_content":false,"is_copyright":false,"is_text_edit_overdub":false,"is_unified_beauty_mode":false,"live_photo_cover_path":"","live_photo_timestamp":-1,"local_id":"","local_material_from":"","local_material_id":"","material_id":"","material_name":"13.png","material_url":"","matting":{"custom_matting_id":"","enable_matting_stroke":false,"expansion":0,"feather":0,"flag":0,"has_use_quick_brush":false,"has_use_quick_eraser":false,"interactiveTime":[],"path":"","reverse":false,"strokes":[]},"media_path":"","multi_camera_info":null,"object_locked":null,"origin_material_id":"","path":"C:/Users/Admin/Desktop/Gaixinh/13.png","picture_from":"none","picture_set_category_id":"","picture_set_category_name":"","request_id":"","reverse_intensifies_path":"","reverse_path":"","smart_match_info":null,"smart_motion":null,"source":0,"source_platform":0,"stable":{"matrix_path":"","stable_level":0,"time_range":{"duration":0,"start":0}},"team_id":"","type":"photo","video_algorithm":{"ai_background_configs":[],"ai_expression_driven":null,"ai_motion_driven":null,"aigc_generate":null,"algorithms":[],"complement_frame_config":null,"deflicker":null,"gameplay_configs":[],"motion_blur_config":null,"mouth_shape_driver":null,"noise_reduction":null,"path":"","quality_enhance":null,"smart_complement_frame":null,"super_resolution":null,"time_range":null},"width":768}],"vocal_beautifys":[],"vocal_separations":[{"choice":0,"id":"415CD5AA-2805-4cb4-A7F6-3D6B109CEDBF","production_path":"","removed_sounds":[],"time_range":null,"type":"vocal_separation"},{"choice":0,"id":"119947A4-B036-4456-8395-9502632AAD84","production_path":"","removed_sounds":[],"time_range":null,"type":"vocal_separation"},{"choice":0,"id":"F3E0716C-74F1-4689-8E45-9AD7B87036DD","production_path":"","removed_sounds":[],"time_range":null,"type":"vocal_separation"},{"choice":0,"id":"9BE88FC7-1E8F-443a-880C-BF659BDDF02F","production_path":"","removed_sounds":[],"time_range":null,"type":"vocal_separation"},{"choice":0,"id":"CE9FAE8D-7036-4836-AA0C-26C28B28195C","production_path":"","removed_sounds":[],"time_range":null,"type":"vocal_separation"},{"choice":0,"id":"02ACEFE6-AB63-4085-9364-1E65CBB1AA80","production_path":"","removed_sounds":[],"time_range":null,"type":"vocal_separation"},{"choice":0,"id":"8BC7BF86-22EE-4d7a-8592-2F113F2C1510","production_path":"","removed_sounds":[],"time_range":null,"type":"vocal_separation"},{"choice":0,"id":"7B9BD1C9-8202-4478-A5EF-7773A6A8ABF6","production_path":"","removed_sounds":[],"time_range":null,"type":"vocal_separation"},{"choice":0,"id":"74C0BBBC-6860-4b6f-8F90-AC808CCB2DBA","production_path":"","removed_sounds":[],"time_range":null,"type":"vocal_separation"},{"choice":0,"id":"EE6ED98B-2092-4677-A5D9-12F06DDAEE52","production_path":"","removed_sounds":[],"time_range":null,"type":"vocal_separation"},{"choice":0,"id":"1933BDBB-3E97-42ca-8A16-9112360E409C","production_path":"","removed_sounds":[],"time_range":null,"type":"vocal_separation"},{"choice":0,"id":"E56A2387-2896-4399-8D38-86542C84FA5D","production_path":"","removed_sounds":[],"time_range":null,"type":"vocal_separation"},{"choice":0,"id":"2D7CFA42-E56B-4102-9EDE-758D24B8AA87","production_path":"","removed_sounds":[],"time_range":null,"type":"vocal_separation"}]},"mutable_config":null,"name":"","new_version":"132.0.0","path":"","platform":{"app_id":359289,"app_source":"cc","app_version":"5.9.1","device_id":"4f4a4b51bbec43c5ac7243b8dd53aef0","hard_disk_id":"cef5f929b0449d472faf52db11a52d60","mac_address":"9bcfd7b256c77a6a7f35673a891788f6","os":"windows","os_version":"10.0.19045"},"relationships":[],"render_index_track_mode_on":true,"retouch_cover":null,"source":"default","static_cover_image_path":"","time_marks":null,"tracks":[{"attribute":0,"flag":0,"id":"DDD2F067-2E89-4c41-B6AB-9C88F21478F0","is_default_name":true,"name":"","segments":[{"caption_info":null,"cartoon":false,"clip":{"alpha":1.0,"flip":{"horizontal":false,"vertical":false},"rotation":0.0,"scale":{"x":1.0,"y":1.0},"transform":{"x":0.0,"y":0.0}},"color_correct_alg_result":"","common_keyframes":[],"desc":"","digital_human_template_group_id":"","enable_adjust":true,"enable_adjust_mask":false,"enable_color_correct_adjust":false,"enable_color_curves":true,"enable_color_match_adjust":false,"enable_color_wheels":true,"enable_hsl":false,"enable_lut":true,"enable_smart_color_adjust":false,"enable_video_mask":true,"extra_material_refs":["19BAE8DE-0A71-4615-8E51-EBEDF0A76EF1","A1A5B1DB-F96C-4c3f-9F85-FF0732A256E3","60D430F5-365A-4785-A006-C1138B7E3917","B5DB7669-FCBC-4acb-9788-688EA7B10117","6008AB07-3366-49c2-98B6-CAE1EA51CE55","415CD5AA-2805-4cb4-A7F6-3D6B109CEDBF"],"group_id":"","hdr_settings":{"intensity":1.0,"mode":1,"nits":1000},"id":"22474413-A57C-4351-8408-1A7452E2D0BD","intensifies_audio":false,"is_loop":false,"is_placeholder":false,"is_tone_modify":false,"keyframe_refs":[],"last_nonzero_volume":1.0,"lyric_keyframes":null,"material_id":"B6D5C3C2-9493-4b2a-B46E-2D415C649A98","raw_segment_id":"","render_index":0,"render_timerange":{"duration":0,"start":0},"responsive_layout":{"enable":false,"horizontal_pos_layout":0,"size_layout":0,"target_follow":"","vertical_pos_layout":0},"reverse":false,"source_timerange":{"duration":5000000,"start":0},"speed":1.0,"state":0,"target_timerange":{"duration":5000000,"start":0},"template_id":"","template_scene":"default","track_attribute":0,"track_render_index":0,"uniform_scale":{"on":true,"value":1.0},"visible":true,"volume":1.0},{"caption_info":null,"cartoon":false,"clip":{"alpha":1.0,"flip":{"horizontal":false,"vertical":false},"rotation":0.0,"scale":{"x":1.0,"y":1.0},"transform":{"x":0.0,"y":0.0}},"color_correct_alg_result":"","common_keyframes":[],"desc":"","digital_human_template_group_id":"","enable_adjust":true,"enable_adjust_mask":false,"enable_color_correct_adjust":false,"enable_color_curves":true,"enable_color_match_adjust":false,"enable_color_wheels":true,"enable_hsl":false,"enable_lut":true,"enable_smart_color_adjust":false,"enable_video_mask":true,"extra_material_refs":["2D22611F-93B9-4c6e-8E2B-BA5EAFF92A7A","50F6393E-F747-4843-BFAD-F389C175CAEF","672A8885-D093-4936-BF7A-1464D1CA96EC","ED2D0BE1-186B-4cf2-870F-1589BBD3A28D","4CA92750-D975-4745-8D20-DD3ED9FD7A58","119947A4-B036-4456-8395-9502632AAD84"],"group_id":"","hdr_settings":{"intensity":1.0,"mode":1,"nits":1000},"id":"E30D9B85-C46B-4315-9ADF-16A93BB67A90","intensifies_audio":false,"is_loop":false,"is_placeholder":false,"is_tone_modify":false,"keyframe_refs":[],"last_nonzero_volume":1.0,"lyric_keyframes":null,"material_id":"5DDDA0B7-4056-4937-B198-332BA3820BF4","raw_segment_id":"","render_index":0,"render_timerange":{"duration":0,"start":0},"responsive_layout":{"enable":false,"horizontal_pos_layout":0,"size_layout":0,"target_follow":"","vertical_pos_layout":0},"reverse":false,"source_timerange":{"duration":5000000,"start":0},"speed":1.0,"state":0,"target_timerange":{"duration":5000000,"start":5000000},"template_id":"","template_scene":"default","track_attribute":0,"track_render_index":0,"uniform_scale":{"on":true,"value":1.0},"visible":true,"volume":1.0},{"caption_info":null,"cartoon":false,"clip":{"alpha":1.0,"flip":{"horizontal":false,"vertical":false},"rotation":0.0,"scale":{"x":1.0,"y":1.0},"transform":{"x":0.0,"y":0.0}},"color_correct_alg_result":"","common_keyframes":[],"desc":"","digital_human_template_group_id":"","enable_adjust":true,"enable_adjust_mask":false,"enable_color_correct_adjust":false,"enable_color_curves":true,"enable_color_match_adjust":false,"enable_color_wheels":true,"enable_hsl":false,"enable_lut":true,"enable_smart_color_adjust":false,"enable_video_mask":true,"extra_material_refs":["2C019504-9B71-47c2-9DBB-C74BCE8874D2","2B5FB1C9-EEEC-4880-9DED-91E58D87FF92","4E3A7CEE-72F4-40be-9298-CD8255CEFC28","C5CE81B1-9212-4701-8744-469175A99F79","CA972161-0B8F-48fb-911F-E67038619F60","F3E0716C-74F1-4689-8E45-9AD7B87036DD"],"group_id":"","hdr_settings":{"intensity":1.0,"mode":1,"nits":1000},"id":"2ABB50CE-8ECC-4874-8B9E-BF179E1416C5","intensifies_audio":false,"is_loop":false,"is_placeholder":false,"is_tone_modify":false,"keyframe_refs":[],"last_nonzero_volume":1.0,"lyric_keyframes":null,"material_id":"58F52184-F300-4732-B91B-9367F4C2061A","raw_segment_id":"","render_index":0,"render_timerange":{"duration":0,"start":0},"responsive_layout":{"enable":false,"horizontal_pos_layout":0,"size_layout":0,"target_follow":"","vertical_pos_layout":0},"reverse":false,"source_timerange":{"duration":5000000,"start":0},"speed":1.0,"state":0,"target_timerange":{"duration":5000000,"start":10000000},"template_id":"","template_scene":"default","track_attribute":0,"track_render_index":0,"uniform_scale":{"on":true,"value":1.0},"visible":true,"volume":1.0},{"caption_info":null,"cartoon":false,"clip":{"alpha":1.0,"flip":{"horizontal":false,"vertical":false},"rotation":0.0,"scale":{"x":1.0,"y":1.0},"transform":{"x":0.0,"y":0.0}},"color_correct_alg_result":"","common_keyframes":[],"desc":"","digital_human_template_group_id":"","enable_adjust":true,"enable_adjust_mask":false,"enable_color_correct_adjust":false,"enable_color_curves":true,"enable_color_match_adjust":false,"enable_color_wheels":true,"enable_hsl":false,"enable_lut":true,"enable_smart_color_adjust":false,"enable_video_mask":true,"extra_material_refs":["DC8F8A49-3FE5-4841-8CFD-EE5105230646","5A425164-A1D3-4742-893E-4BEC956275D8","9BB593AA-FB5D-4dc2-BA2D-B98EE90938F2","AC36CFB9-4D0D-4b3e-B212-B4B1960444AF","62EFFE06-0165-4ff5-ACD5-87471A4930F9","9BE88FC7-1E8F-443a-880C-BF659BDDF02F"],"group_id":"","hdr_settings":{"intensity":1.0,"mode":1,"nits":1000},"id":"FED23C68-FD66-4bfd-BB59-0816F9195773","intensifies_audio":false,"is_loop":false,"is_placeholder":false,"is_tone_modify":false,"keyframe_refs":[],"last_nonzero_volume":1.0,"lyric_keyframes":null,"material_id":"9ADAFAC4-7BE6-4804-9B40-8E143B604A0E","raw_segment_id":"","render_index":0,"render_timerange":{"duration":0,"start":0},"responsive_layout":{"enable":false,"horizontal_pos_layout":0,"size_layout":0,"target_follow":"","vertical_pos_layout":0},"reverse":false,"source_timerange":{"duration":5000000,"start":0},"speed":1.0,"state":0,"target_timerange":{"duration":5000000,"start":15000000},"template_id":"","template_scene":"default","track_attribute":0,"track_render_index":0,"uniform_scale":{"on":true,"value":1.0},"visible":true,"volume":1.0},{"caption_info":null,"cartoon":false,"clip":{"alpha":1.0,"flip":{"horizontal":false,"vertical":false},"rotation":0.0,"scale":{"x":1.0,"y":1.0},"transform":{"x":0.0,"y":0.0}},"color_correct_alg_result":"","common_keyframes":[],"desc":"","digital_human_template_group_id":"","enable_adjust":true,"enable_adjust_mask":false,"enable_color_correct_adjust":false,"enable_color_curves":true,"enable_color_match_adjust":false,"enable_color_wheels":true,"enable_hsl":false,"enable_lut":true,"enable_smart_color_adjust":false,"enable_video_mask":true,"extra_material_refs":["1CCCFF5B-6FD2-4d8d-ACB5-DA6EADCC1CF9","B2866720-064B-4170-82FF-2FD08456687F","34FB1354-2EDA-4eec-B602-117A35B7F2C6","48CB7022-47E2-45de-9E02-75248A31870D","8BEBC2F0-9B7C-41d8-B790-6D3F32F3A96A","CE9FAE8D-7036-4836-AA0C-26C28B28195C"],"group_id":"","hdr_settings":{"intensity":1.0,"mode":1,"nits":1000},"id":"8A0BC118-33AA-429d-A697-8C667B519061","intensifies_audio":false,"is_loop":false,"is_placeholder":false,"is_tone_modify":false,"keyframe_refs":[],"last_nonzero_volume":1.0,"lyric_keyframes":null,"material_id":"4DD55ABF-1528-45df-A4E4-9584E50EEF76","raw_segment_id":"","render_index":0,"render_timerange":{"duration":0,"start":0},"responsive_layout":{"enable":false,"horizontal_pos_layout":0,"size_layout":0,"target_follow":"","vertical_pos_layout":0},"reverse":false,"source_timerange":{"duration":5000000,"start":0},"speed":1.0,"state":0,"target_timerange":{"duration":5000000,"start":20000000},"template_id":"","template_scene":"default","track_attribute":0,"track_render_index":0,"uniform_scale":{"on":true,"value":1.0},"visible":true,"volume":1.0},{"caption_info":null,"cartoon":false,"clip":{"alpha":1.0,"flip":{"horizontal":false,"vertical":false},"rotation":0.0,"scale":{"x":1.0,"y":1.0},"transform":{"x":0.0,"y":0.0}},"color_correct_alg_result":"","common_keyframes":[],"desc":"","digital_human_template_group_id":"","enable_adjust":true,"enable_adjust_mask":false,"enable_color_correct_adjust":false,"enable_color_curves":true,"enable_color_match_adjust":false,"enable_color_wheels":true,"enable_hsl":false,"enable_lut":true,"enable_smart_color_adjust":false,"enable_video_mask":true,"extra_material_refs":["CA86090D-1896-4bc7-A804-3A1EB0007167","D2E72AEF-E82F-4e2e-A7AD-ACBCE11EFFF3","B772C504-B788-44e2-8986-818C7181C802","4596A587-E390-4f57-920E-C51CEE2BB1D7","C6AEB626-06DB-4d2c-A0E2-922DB7E587A7","02ACEFE6-AB63-4085-9364-1E65CBB1AA80"],"group_id":"","hdr_settings":{"intensity":1.0,"mode":1,"nits":1000},"id":"4748D8C3-417F-4206-A1B2-CD8B1FD62F8B","intensifies_audio":false,"is_loop":false,"is_placeholder":false,"is_tone_modify":false,"keyframe_refs":[],"last_nonzero_volume":1.0,"lyric_keyframes":null,"material_id":"CE97CB43-B21F-421d-A645-F1C1842CD183","raw_segment_id":"","render_index":0,"render_timerange":{"duration":0,"start":0},"responsive_layout":{"enable":false,"horizontal_pos_layout":0,"size_layout":0,"target_follow":"","vertical_pos_layout":0},"reverse":false,"source_timerange":{"duration":5000000,"start":0},"speed":1.0,"state":0,"target_timerange":{"duration":5000000,"start":25000000},"template_id":"","template_scene":"default","track_attribute":0,"track_render_index":0,"uniform_scale":{"on":true,"value":1.0},"visible":true,"volume":1.0},{"caption_info":null,"cartoon":false,"clip":{"alpha":1.0,"flip":{"horizontal":false,"vertical":false},"rotation":0.0,"scale":{"x":1.0,"y":1.0},"transform":{"x":0.0,"y":0.0}},"color_correct_alg_result":"","common_keyframes":[],"desc":"","digital_human_template_group_id":"","enable_adjust":true,"enable_adjust_mask":false,"enable_color_correct_adjust":false,"enable_color_curves":true,"enable_color_match_adjust":false,"enable_color_wheels":true,"enable_hsl":false,"enable_lut":true,"enable_smart_color_adjust":false,"enable_video_mask":true,"extra_material_refs":["DCFE37D9-8482-4bc6-B88F-5AA819BDB3FB","1B647E9D-95A8-45b8-9117-920A5D5495B0","62857047-6EF4-4a3e-A263-79B3DF4A541F","481C481E-FAE4-4f31-B1B5-C5A69C34BBBB","D0300BAF-E2EB-460c-9BC0-0A4A16E35057","8BC7BF86-22EE-4d7a-8592-2F113F2C1510"],"group_id":"","hdr_settings":{"intensity":1.0,"mode":1,"nits":1000},"id":"F40AFCAF-1B3E-43e3-85AE-756DEAB5C404","intensifies_audio":false,"is_loop":false,"is_placeholder":false,"is_tone_modify":false,"keyframe_refs":[],"last_nonzero_volume":1.0,"lyric_keyframes":null,"material_id":"8248AFA3-2E64-4b4a-B0FE-990319B20242","raw_segment_id":"","render_index":0,"render_timerange":{"duration":0,"start":0},"responsive_layout":{"enable":false,"horizontal_pos_layout":0,"size_layout":0,"target_follow":"","vertical_pos_layout":0},"reverse":false,"source_timerange":{"duration":5000000,"start":0},"speed":1.0,"state":0,"target_timerange":{"duration":5000000,"start":30000000},"template_id":"","template_scene":"default","track_attribute":0,"track_render_index":0,"uniform_scale":{"on":true,"value":1.0},"visible":true,"volume":1.0},{"caption_info":null,"cartoon":false,"clip":{"alpha":1.0,"flip":{"horizontal":false,"vertical":false},"rotation":0.0,"scale":{"x":1.0,"y":1.0},"transform":{"x":0.0,"y":0.0}},"color_correct_alg_result":"","common_keyframes":[],"desc":"","digital_human_template_group_id":"","enable_adjust":true,"enable_adjust_mask":false,"enable_color_correct_adjust":false,"enable_color_curves":true,"enable_color_match_adjust":false,"enable_color_wheels":true,"enable_hsl":false,"enable_lut":true,"enable_smart_color_adjust":false,"enable_video_mask":true,"extra_material_refs":["9F7A7B1C-7117-4777-B07B-8E3CB96CEB3D","C934DA4B-08DD-4f8d-AF53-D87C51EA6236","4DEEFD70-1BE0-4f60-AE5C-EDBF1625549B","461185CA-6222-4427-B862-F0D149C7A3AD","A6451C7A-51DE-474b-83C2-CAE830ADD4FB","7B9BD1C9-8202-4478-A5EF-7773A6A8ABF6"],"group_id":"","hdr_settings":{"intensity":1.0,"mode":1,"nits":1000},"id":"51DEDD5B-9C3C-450b-BFDD-628C5CD50671","intensifies_audio":false,"is_loop":false,"is_placeholder":false,"is_tone_modify":false,"keyframe_refs":[],"last_nonzero_volume":1.0,"lyric_keyframes":null,"material_id":"427E7579-AC8F-41c2-A013-5EC8E9290108","raw_segment_id":"","render_index":0,"render_timerange":{"duration":0,"start":0},"responsive_layout":{"enable":false,"horizontal_pos_layout":0,"size_layout":0,"target_follow":"","vertical_pos_layout":0},"reverse":false,"source_timerange":{"duration":5000000,"start":0},"speed":1.0,"state":0,"target_timerange":{"duration":5000000,"start":35000000},"template_id":"","template_scene":"default","track_attribute":0,"track_render_index":0,"uniform_scale":{"on":true,"value":1.0},"visible":true,"volume":1.0},{"caption_info":null,"cartoon":false,"clip":{"alpha":1.0,"flip":{"horizontal":false,"vertical":false},"rotation":0.0,"scale":{"x":1.0,"y":1.0},"transform":{"x":0.0,"y":0.0}},"color_correct_alg_result":"","common_keyframes":[],"desc":"","digital_human_template_group_id":"","enable_adjust":true,"enable_adjust_mask":false,"enable_color_correct_adjust":false,"enable_color_curves":true,"enable_color_match_adjust":false,"enable_color_wheels":true,"enable_hsl":false,"enable_lut":true,"enable_smart_color_adjust":false,"enable_video_mask":true,"extra_material_refs":["7D0B7FE9-EE5D-434d-AD27-F1AB71B2F14C","84926A8A-4EA5-4d37-B083-3A543A362091","882DD79D-C2DE-414f-932E-610C2B2F338E","78FB3CC1-13BB-40ea-A6D8-DD89A49A2BA3","CD8D86DA-0CC1-4f7e-96FB-CBDEE1AAD84F","74C0BBBC-6860-4b6f-8F90-AC808CCB2DBA"],"group_id":"","hdr_settings":{"intensity":1.0,"mode":1,"nits":1000},"id":"BA566977-E84F-4667-8968-FF4877C5C52C","intensifies_audio":false,"is_loop":false,"is_placeholder":false,"is_tone_modify":false,"keyframe_refs":[],"last_nonzero_volume":1.0,"lyric_keyframes":null,"material_id":"082CFC74-6099-4092-849A-4DD0E4349E0F","raw_segment_id":"","render_index":0,"render_timerange":{"duration":0,"start":0},"responsive_layout":{"enable":false,"horizontal_pos_layout":0,"size_layout":0,"target_follow":"","vertical_pos_layout":0},"reverse":false,"source_timerange":{"duration":5000000,"start":0},"speed":1.0,"state":0,"target_timerange":{"duration":5000000,"start":40000000},"template_id":"","template_scene":"default","track_attribute":0,"track_render_index":0,"uniform_scale":{"on":true,"value":1.0},"visible":true,"volume":1.0},{"caption_info":null,"cartoon":false,"clip":{"alpha":1.0,"flip":{"horizontal":false,"vertical":false},"rotation":0.0,"scale":{"x":1.0,"y":1.0},"transform":{"x":0.0,"y":0.0}},"color_correct_alg_result":"","common_keyframes":[],"desc":"","digital_human_template_group_id":"","enable_adjust":true,"enable_adjust_mask":false,"enable_color_correct_adjust":false,"enable_color_curves":true,"enable_color_match_adjust":false,"enable_color_wheels":true,"enable_hsl":false,"enable_lut":true,"enable_smart_color_adjust":false,"enable_video_mask":true,"extra_material_refs":["B71A331E-9E78-455f-91E0-E3C7774F7945","67E58526-4390-415f-A716-FF7E92C849F3","8AE8B98C-B55C-424e-8546-1ACE9EBB3A2C","C33AC1B5-427E-4a1a-8CD9-76B850BD7F72","6461E3F2-8D66-49d8-8DC1-E61FF759821C","EE6ED98B-2092-4677-A5D9-12F06DDAEE52"],"group_id":"","hdr_settings":{"intensity":1.0,"mode":1,"nits":1000},"id":"E3AAA06F-E196-4c9a-BC6A-A279B9791391","intensifies_audio":false,"is_loop":false,"is_placeholder":false,"is_tone_modify":false,"keyframe_refs":[],"last_nonzero_volume":1.0,"lyric_keyframes":null,"material_id":"41C23103-564F-4cd8-B7D4-7D44EBF14CA6","raw_segment_id":"","render_index":0,"render_timerange":{"duration":0,"start":0},"responsive_layout":{"enable":false,"horizontal_pos_layout":0,"size_layout":0,"target_follow":"","vertical_pos_layout":0},"reverse":false,"source_timerange":{"duration":5000000,"start":0},"speed":1.0,"state":0,"target_timerange":{"duration":5000000,"start":45000000},"template_id":"","template_scene":"default","track_attribute":0,"track_render_index":0,"uniform_scale":{"on":true,"value":1.0},"visible":true,"volume":1.0},{"caption_info":null,"cartoon":false,"clip":{"alpha":1.0,"flip":{"horizontal":false,"vertical":false},"rotation":0.0,"scale":{"x":1.0,"y":1.0},"transform":{"x":0.0,"y":0.0}},"color_correct_alg_result":"","common_keyframes":[],"desc":"","digital_human_template_group_id":"","enable_adjust":true,"enable_adjust_mask":false,"enable_color_correct_adjust":false,"enable_color_curves":true,"enable_color_match_adjust":false,"enable_color_wheels":true,"enable_hsl":false,"enable_lut":true,"enable_smart_color_adjust":false,"enable_video_mask":true,"extra_material_refs":["57843B18-40D2-464e-BB6A-E970FBE6AE06","9CC17452-24FC-46ce-9C12-88B04652ECE4","BF3210B3-B379-4e34-B0E5-A6EC696BB8D6","2C3900F8-E0D4-4157-ACFF-872165E61F27","5984F0AB-B619-4900-BFDD-FE95E5DBE841","1933BDBB-3E97-42ca-8A16-9112360E409C"],"group_id":"","hdr_settings":{"intensity":1.0,"mode":1,"nits":1000},"id":"D9090E61-09FA-4791-90F0-C0F206E48EBB","intensifies_audio":false,"is_loop":false,"is_placeholder":false,"is_tone_modify":false,"keyframe_refs":[],"last_nonzero_volume":1.0,"lyric_keyframes":null,"material_id":"43CC45BD-DA89-4acb-9A1A-28DDCF99E908","raw_segment_id":"","render_index":0,"render_timerange":{"duration":0,"start":0},"responsive_layout":{"enable":false,"horizontal_pos_layout":0,"size_layout":0,"target_follow":"","vertical_pos_layout":0},"reverse":false,"source_timerange":{"duration":5000000,"start":0},"speed":1.0,"state":0,"target_timerange":{"duration":5000000,"start":50000000},"template_id":"","template_scene":"default","track_attribute":0,"track_render_index":0,"uniform_scale":{"on":true,"value":1.0},"visible":true,"volume":1.0},{"caption_info":null,"cartoon":false,"clip":{"alpha":1.0,"flip":{"horizontal":false,"vertical":false},"rotation":0.0,"scale":{"x":1.0,"y":1.0},"transform":{"x":0.0,"y":0.0}},"color_correct_alg_result":"","common_keyframes":[],"desc":"","digital_human_template_group_id":"","enable_adjust":true,"enable_adjust_mask":false,"enable_color_correct_adjust":false,"enable_color_curves":true,"enable_color_match_adjust":false,"enable_color_wheels":true,"enable_hsl":false,"enable_lut":true,"enable_smart_color_adjust":false,"enable_video_mask":true,"extra_material_refs":["E2CF8B0C-EEBD-4985-BF20-4C1A142A5DFA","2841C86D-F5FA-41e7-9257-235D25BFCEA6","D1A50882-9314-491a-B03F-A3827F48B3AE","B607C69B-E82C-48cf-B53B-F1F2F9193F98","E14E1A65-3BF0-4df0-B8C5-50BF2DD3D780","E56A2387-2896-4399-8D38-86542C84FA5D"],"group_id":"","hdr_settings":{"intensity":1.0,"mode":1,"nits":1000},"id":"42C08ED9-3CD7-4099-AF11-9561527D73FC","intensifies_audio":false,"is_loop":false,"is_placeholder":false,"is_tone_modify":false,"keyframe_refs":[],"last_nonzero_volume":1.0,"lyric_keyframes":null,"material_id":"6B3B1B27-6522-423f-AF07-3677E0AD158D","raw_segment_id":"","render_index":0,"render_timerange":{"duration":0,"start":0},"responsive_layout":{"enable":false,"horizontal_pos_layout":0,"size_layout":0,"target_follow":"","vertical_pos_layout":0},"reverse":false,"source_timerange":{"duration":5000000,"start":0},"speed":1.0,"state":0,"target_timerange":{"duration":5000000,"start":55000000},"template_id":"","template_scene":"default","track_attribute":0,"track_render_index":0,"uniform_scale":{"on":true,"value":1.0},"visible":true,"volume":1.0},{"caption_info":null,"cartoon":false,"clip":{"alpha":1.0,"flip":{"horizontal":false,"vertical":false},"rotation":0.0,"scale":{"x":1.0,"y":1.0},"transform":{"x":0.0,"y":0.0}},"color_correct_alg_result":"","common_keyframes":[],"desc":"","digital_human_template_group_id":"","enable_adjust":true,"enable_adjust_mask":false,"enable_color_correct_adjust":false,"enable_color_curves":true,"enable_color_match_adjust":false,"enable_color_wheels":true,"enable_hsl":false,"enable_lut":true,"enable_smart_color_adjust":false,"enable_video_mask":true,"extra_material_refs":["E3CE6411-3620-410c-A86E-75857FFA15FC","0C6527BA-769F-4831-BCF8-8116483E2F42","51A6D832-B9C0-431e-BFFC-02E730ACFD42","EA228D08-163A-4b4c-B232-E988A057A955","495934DA-88CF-46e6-BD12-5E3CF5D032CA","2D7CFA42-E56B-4102-9EDE-758D24B8AA87"],"group_id":"","hdr_settings":{"intensity":1.0,"mode":1,"nits":1000},"id":"9D733898-8A24-4f81-B801-940521277A46","intensifies_audio":false,"is_loop":false,"is_placeholder":false,"is_tone_modify":false,"keyframe_refs":[],"last_nonzero_volume":1.0,"lyric_keyframes":null,"material_id":"58242BBE-A0A9-4581-94DA-D59F5413490E","raw_segment_id":"","render_index":0,"render_timerange":{"duration":0,"start":0},"responsive_layout":{"enable":false,"horizontal_pos_layout":0,"size_layout":0,"target_follow":"","vertical_pos_layout":0},"reverse":false,"source_timerange":{"duration":5000000,"start":0},"speed":1.0,"state":0,"target_timerange":{"duration":5000000,"start":60000000},"template_id":"","template_scene":"default","track_attribute":0,"track_render_index":0,"uniform_scale":{"on":true,"value":1.0},"visible":true,"volume":1.0}],"type":"video"}],"uneven_animation_template_info":{"composition":"","content":"","order":"","sub_template_info_list":[]},"update_time":0,"version":360000}