{"canvas_config":{"background":null,"height":1920,"ratio":"original","width":1080},"color_space":0,"config":{"adjust_max_index":1,"attachment_info":[],"combination_max_index":1,"export_range":null,"extract_audio_last_index":1,"lyrics_recognition_id":"","lyrics_sync":true,"lyrics_taskinfo":[],"maintrack_adsorb":true,"material_save_mode":0,"multi_language_current":"none","multi_language_list":[],"multi_language_main":"none","multi_language_mode":"none","original_sound_last_index":1,"record_audio_last_index":1,"sticker_max_index":1,"subtitle_keywords_config":null,"subtitle_recognition_id":"","subtitle_sync":true,"subtitle_taskinfo":[],"system_font_list":[],"video_mute":false,"zoom_info_params":null},"cover":null,"create_time":0,"duration":60000000,"extra_info":null,"fps":30.0,"free_render_index_mode_on":false,"group_container":null,"id":"BF5E146A-83FE-4585-917F-53E1F958709C","is_drop_frame_timecode":false,"keyframe_graph_list":[],"keyframes":{"adjusts":[],"audios":[],"effects":[],"filters":[],"handwrites":[],"stickers":[],"texts":[],"videos":[]},"last_modified_platform":{"app_id":359289,"app_source":"cc","app_version":"5.9.1","device_id":"f9bd86713d1d274b6c423d29e7bbc922","hard_disk_id":"d63310c0183b8d412aeed20cf11a65e4","mac_address":"032b70e2df01a4a83f0dc98dfc5d64ec","os":"windows","os_version":"10.0.19045"},"lyrics_effects":[],"materials":{"ai_translates":[],"audio_balances":[],"audio_effects":[],"audio_fades":[],"audio_track_indexes":[],"audios":[],"beats":[],"canvases":[{"album_image":"","blur":0.0,"color":"","id":"42A95541-2C10-4c13-A474-12A38818D149","image":"","image_id":"","image_name":"","source_platform":0,"team_id":"","type":"canvas_color"},{"album_image":"","blur":0.0,"color":"","id":"6E5CED5A-D5A5-47f7-AF76-73482758D938","image":"","image_id":"","image_name":"","source_platform":0,"team_id":"","type":"canvas_color"},{"album_image":"","blur":0.0,"color":"","id":"47B356B9-09CD-47ad-8307-0CFA1C3407C1","image":"","image_id":"","image_name":"","source_platform":0,"team_id":"","type":"canvas_color"},{"album_image":"","blur":0.0,"color":"","id":"8B9D55D8-85D3-4d9e-BEF6-9B470876D120","image":"","image_id":"","image_name":"","source_platform":0,"team_id":"","type":"canvas_color"},{"album_image":"","blur":0.0,"color":"","id":"64C74EEF-490F-4962-9AA8-21F3FAD292DA","image":"","image_id":"","image_name":"","source_platform":0,"team_id":"","type":"canvas_color"},{"album_image":"","blur":0.0,"color":"","id":"02FE71BC-44B5-4b99-ACF7-24F372D06879","image":"","image_id":"","image_name":"","source_platform":0,"team_id":"","type":"canvas_color"},{"album_image":"","blur":0.0,"color":"","id":"A8D64A06-3D05-4db8-A859-8BB4093931B5","image":"","image_id":"","image_name":"","source_platform":0,"team_id":"","type":"canvas_color"},{"album_image":"","blur":0.0,"color":"","id":"1C3BAD39-81CD-43f5-B17B-68FBB2FCC7F6","image":"","image_id":"","image_name":"","source_platform":0,"team_id":"","type":"canvas_color"},{"album_image":"","blur":0.0,"color":"","id":"1F402995-5ECD-448e-802E-65D0D957348F","image":"","image_id":"","image_name":"","source_platform":0,"team_id":"","type":"canvas_color"},{"album_image":"","blur":0.0,"color":"","id":"96997470-E4FE-42b1-B01A-FA002C534BE2","image":"","image_id":"","image_name":"","source_platform":0,"team_id":"","type":"canvas_color"},{"album_image":"","blur":0.0,"color":"","id":"09843CD3-25C8-4dbb-A1C8-1F45503EA883","image":"","image_id":"","image_name":"","source_platform":0,"team_id":"","type":"canvas_color"},{"album_image":"","blur":0.0,"color":"","id":"37A9EA9C-4ABB-47b8-9FEF-9208F5C84BAF","image":"","image_id":"","image_name":"","source_platform":0,"team_id":"","type":"canvas_color"}],"chromas":[],"color_curves":[],"common_mask":[],"digital_humans":[],"drafts":[],"effects":[],"flowers":[],"green_screens":[],"handwrites":[],"hsl":[],"images":[],"log_color_wheels":[],"loudnesses":[],"manual_beautys":[],"manual_deformations":[],"material_animations":[{"animations":[{"anim_adjust_params":null,"category_id":"6824","category_name":"Vào","duration":500000,"id":"7221443319530787330","material_type":"video","name":"Nếp gấp","panel":"video","path":"C:/Users/ADMIN/AppData/Local/CapCut/User Data/Cache/effect/7221443319530787330/727e2d4e66fb0fd66cbd7cae910b5e68","platform":"all","request_id":"202504041516173A932121F197DFBCF28A","resource_id":"7221443319530787330","source_platform":1,"start":0,"third_resource_id":"7221443319530787330","type":"in"},{"anim_adjust_params":null,"category_id":"6825","category_name":"Ra","duration":733330,"id":"7294461821170225666","material_type":"video","name":"Hố đen","panel":"video","path":"C:/Users/ADMIN/AppData/Local/CapCut/User Data/Cache/effect/7294461821170225666/18f0daae1bf0b7bb2fbdec2d4a3dbdcd","platform":"all","request_id":"202504041516173A932121F197DFBCF28A","resource_id":"7294461821170225666","source_platform":1,"start":4266670,"third_resource_id":"7294461821170225666","type":"out"}],"id":"1E6D1B66-FCB1-4f8c-81CC-4734CD87A0E8","multi_language_current":"none","type":"sticker_animation"},{"animations":[{"anim_adjust_params":null,"category_id":"6824","category_name":"Vào","duration":500000,"id":"6740868384637850120","material_type":"video","name":"Thu phóng 1","panel":"video","path":"C:/Users/ADMIN/AppData/Local/CapCut/User Data/Cache/effect/6740868384637850120/6444aa1a1706f02003f9c56c4c0757b3","platform":"all","request_id":"202504041516173A932121F197DFBCF28A","resource_id":"6740868384637850120","source_platform":1,"start":0,"third_resource_id":"6740868384637850120","type":"in"},{"anim_adjust_params":null,"category_id":"6825","category_name":"Ra","duration":500000,"id":"7294461821170225666","material_type":"video","name":"Hố đen","panel":"video","path":"C:/Users/ADMIN/AppData/Local/CapCut/User Data/Cache/effect/7294461821170225666/18f0daae1bf0b7bb2fbdec2d4a3dbdcd","platform":"all","request_id":"202504041516173A932121F197DFBCF28A","resource_id":"7294461821170225666","source_platform":1,"start":4500000,"third_resource_id":"7294461821170225666","type":"out"},{"anim_adjust_params":null,"category_id":"6826","category_name":"Kết hợp","duration":4000000,"id":"6779083172429697544","material_type":"video","name":"Thu phóng 2","panel":"video","path":"C:/Users/ADMIN/AppData/Local/CapCut/User Data/Cache/effect/6779083172429697544/60cdf52561e071069e0a3fdcb5b704c7","platform":"all","request_id":"202504041516173A932121F197DFBCF28A","resource_id":"6779083172429697544","source_platform":1,"start":500000,"third_resource_id":"6779083172429697544","type":"group"}],"id":"3045433C-9D57-487d-A8DD-2072D3BB9E8C","multi_language_current":"none","type":"sticker_animation"},{"animations":[{"anim_adjust_params":null,"category_id":"6826","category_name":"Kết hợp","duration":5000000,"id":"6779083172429697544","material_type":"video","name":"Thu phóng 2","panel":"video","path":"C:/Users/ADMIN/AppData/Local/CapCut/User Data/Cache/effect/6779083172429697544/60cdf52561e071069e0a3fdcb5b704c7","platform":"all","request_id":"202504041516173A932121F197DFBCF28A","resource_id":"6779083172429697544","source_platform":1,"start":0,"third_resource_id":"6779083172429697544","type":"group"}],"id":"D2E3EBA7-4276-484a-86EA-824F6F6517A7","multi_language_current":"none","type":"sticker_animation"},{"animations":[{"anim_adjust_params":null,"category_id":"6826","category_name":"Kết hợp","duration":5000000,"id":"6811007755785081357","material_type":"video","name":"Con lắc 1","panel":"video","path":"C:/Users/ADMIN/AppData/Local/CapCut/User Data/Cache/effect/6811007755785081357/47cc5d94c283293166c3d3d3fde86655","platform":"all","request_id":"202504041516173A932121F197DFBCF28A","resource_id":"6811007755785081357","source_platform":1,"start":0,"third_resource_id":"6811007755785081357","type":"group"}],"id":"7A4BE6B9-E34D-42e5-B2C7-273FC49AF17A","multi_language_current":"none","type":"sticker_animation"},{"animations":[],"id":"D47040E8-872A-4142-B524-8DC7F484A34D","multi_language_current":"none","type":"sticker_animation"},{"animations":[],"id":"4537ED0F-CC19-469d-BF3B-73E64EC626C2","multi_language_current":"none","type":"sticker_animation"},{"animations":[],"id":"3ACABEA9-E233-484f-9AF8-9E54EC71C3B4","multi_language_current":"none","type":"sticker_animation"}],"material_colors":[],"multi_language_refs":[],"placeholder_infos":[{"error_path":"","error_text":"","id":"EDC9112D-3A53-4c5d-990F-892DD21699CB","meta_type":"none","res_path":"","res_text":"","type":"placeholder_info"},{"error_path":"","error_text":"","id":"480D5EED-E090-43f3-9C57-CA2FAA417637","meta_type":"none","res_path":"","res_text":"","type":"placeholder_info"},{"error_path":"","error_text":"","id":"5E5FD74D-B00E-40fb-BE11-9CA8249C0B09","meta_type":"none","res_path":"","res_text":"","type":"placeholder_info"},{"error_path":"","error_text":"","id":"B4884B94-F8F9-47dd-90E0-47001194479B","meta_type":"none","res_path":"","res_text":"","type":"placeholder_info"},{"error_path":"","error_text":"","id":"7A76B144-6684-4411-9DBA-CD844EBEA33C","meta_type":"none","res_path":"","res_text":"","type":"placeholder_info"},{"error_path":"","error_text":"","id":"A6CA1899-A406-41ac-A634-85617E3DEA7D","meta_type":"none","res_path":"","res_text":"","type":"placeholder_info"},{"error_path":"","error_text":"","id":"2CDC107C-C1F8-4802-AF01-FC372EB230E6","meta_type":"none","res_path":"","res_text":"","type":"placeholder_info"},{"error_path":"","error_text":"","id":"8F842B76-C41E-4a3f-AEDB-1427DC1722F5","meta_type":"none","res_path":"","res_text":"","type":"placeholder_info"},{"error_path":"","error_text":"","id":"760EBA9A-8E16-4e9c-B4E8-1A7BF3D86681","meta_type":"none","res_path":"","res_text":"","type":"placeholder_info"},{"error_path":"","error_text":"","id":"59D4533C-124A-49a4-B871-72F0B0F7FCE3","meta_type":"none","res_path":"","res_text":"","type":"placeholder_info"},{"error_path":"","error_text":"","id":"66CD2C17-5783-4c9f-94F2-0C7DAE43DCAE","meta_type":"none","res_path":"","res_text":"","type":"placeholder_info"},{"error_path":"","error_text":"","id":"BE958AD8-0210-4621-A048-67920B1D6523","meta_type":"none","res_path":"","res_text":"","type":"placeholder_info"}],"placeholders":[],"plugin_effects":[],"primary_color_wheels":[],"realtime_denoises":[],"shapes":[],"smart_crops":[],"smart_relights":[],"sound_channel_mappings":[{"audio_channel_mapping":0,"id":"7BC33924-8EB5-4317-A539-16B49884B501","is_config_open":false,"type":""},{"audio_channel_mapping":0,"id":"3E8A97C0-BECF-493b-8B89-97C0632A4088","is_config_open":false,"type":""},{"audio_channel_mapping":0,"id":"EE5ADB92-0593-4032-A5A2-4D3321924492","is_config_open":false,"type":""},{"audio_channel_mapping":0,"id":"5FC99EF3-EF1B-4254-85CE-577C94B3A7D5","is_config_open":false,"type":""},{"audio_channel_mapping":0,"id":"947BD01F-78DF-4ff4-AD66-AFAA185683FA","is_config_open":false,"type":""},{"audio_channel_mapping":0,"id":"57C70F61-7EA2-4e37-9EAF-FB1CB6915802","is_config_open":false,"type":""},{"audio_channel_mapping":0,"id":"32D584EA-C496-4982-8F3C-47B7C3763A06","is_config_open":false,"type":""},{"audio_channel_mapping":0,"id":"3C2CDC7B-8648-4154-A2C3-67DA5FF59C76","is_config_open":false,"type":""},{"audio_channel_mapping":0,"id":"C46A06FE-FEE4-4674-901A-D12FDE7BD529","is_config_open":false,"type":""},{"audio_channel_mapping":0,"id":"58330E82-0B70-46e0-B6C3-D4063138F8A1","is_config_open":false,"type":""},{"audio_channel_mapping":0,"id":"248E93F6-33DA-4591-9192-3481DA19AD4A","is_config_open":false,"type":""},{"audio_channel_mapping":0,"id":"5FBC6C2C-8800-45d5-B74D-C9242C1EE59A","is_config_open":false,"type":""}],"speeds":[{"curve_speed":null,"id":"86EF8775-D10E-4152-B306-EF75D4F13A0E","mode":0,"speed":1.0,"type":"speed"},{"curve_speed":null,"id":"5595758D-D894-4b7f-B6CA-F0CD225BA8D4","mode":0,"speed":1.0,"type":"speed"},{"curve_speed":null,"id":"9D09BC66-157B-4752-8EF3-C6C52FC51A5D","mode":0,"speed":1.0,"type":"speed"},{"curve_speed":null,"id":"00674343-C681-447f-8583-BDB08AB63539","mode":0,"speed":1.0,"type":"speed"},{"curve_speed":null,"id":"5696AFFB-FAF0-4115-B5B2-58306CD4C65A","mode":0,"speed":1.0,"type":"speed"},{"curve_speed":null,"id":"59A9E858-B380-478b-96F4-F12F7523A745","mode":0,"speed":1.0,"type":"speed"},{"curve_speed":null,"id":"69A9912D-1006-47cc-8FC9-B212C328508F","mode":0,"speed":1.0,"type":"speed"},{"curve_speed":null,"id":"E88575D7-21E1-4c80-A905-70EC78EB7438","mode":0,"speed":1.0,"type":"speed"},{"curve_speed":null,"id":"AFA515A9-B810-4359-8A6C-E68FDA372E54","mode":0,"speed":1.0,"type":"speed"},{"curve_speed":null,"id":"938E5C1C-EA69-4051-958C-8E44354E862E","mode":0,"speed":1.0,"type":"speed"},{"curve_speed":null,"id":"DB0D97DE-55C7-48e3-8936-46BB437D4687","mode":0,"speed":1.0,"type":"speed"},{"curve_speed":null,"id":"6547E4CA-47B1-4e7f-BFCB-60D59B8496D0","mode":0,"speed":1.0,"type":"speed"}],"stickers":[],"tail_leaders":[],"text_templates":[],"texts":[],"time_marks":[],"transitions":[{"category_id":"25835","category_name":"Đang thịnh hành","duration":466666,"effect_id":"6726707814028284423","id":"01FB7542-E824-47ff-8959-A3B76273A424","is_overlap":true,"name":"Chói lòa 1","path":"C:/Users/ADMIN/AppData/Local/CapCut/User Data/Cache/effect/6726707814028284423/a3fd6266c293496fd9480884a93fb90e","platform":"all","request_id":"202504041518242A5D4DFD248D66B6E8E1","resource_id":"6726707814028284423","source_platform":1,"third_resource_id":"6726707814028284423","type":"transition"},{"category_id":"25835","category_name":"Đang thịnh hành","duration":466666,"effect_id":"6726707814028284423","id":"BC72A0E9-4923-4738-8260-A0186437C010","is_overlap":true,"name":"Chói lòa 1","path":"C:/Users/ADMIN/AppData/Local/CapCut/User Data/Cache/effect/6726707814028284423/a3fd6266c293496fd9480884a93fb90e","platform":"all","request_id":"202504041518242A5D4DFD248D66B6E8E1","resource_id":"6726707814028284423","source_platform":1,"third_resource_id":"6726707814028284423","type":"transition"}],"video_effects":[{"adjust_params":[{"default_value":0.87719298245614,"name":"effects_adjust_blur","value":0.87719298245614},{"default_value":0.5,"name":"effects_adjust_luminance","value":0.5},{"default_value":0.6,"name":"effects_adjust_intensity","value":0.6},{"default_value":0.6,"name":"effects_adjust_distortion","value":0.6}],"algorithm_artifact_path":"","apply_target_type":2,"apply_time_range":null,"category_id":"27296","category_name":"Đang thịnh hành","common_keyframes":[],"covering_relation_change":0,"disable_effect_faces":[],"effect_id":"7395467620922789125","effect_mask":[],"enable_mask":true,"formula_id":"","id":"B8BABD7D-C71F-4fdc-850F-D8AC9C563799","item_effect_type":0,"name":"Mở ra","path":"C:/Users/ADMIN/AppData/Local/CapCut/User Data/Cache/effect/7395467620922789125/26c9cc8d460d2639fe4fbb0bbd012d41","platform":"all","render_index":0,"request_id":"202504041519068FF94CA9311E45BD5A0B","resource_id":"7395467620922789125","source_platform":1,"time_range":null,"track_render_index":0,"type":"video_effect","value":1.0,"version":""},{"adjust_params":[{"default_value":1.0,"name":"effects_adjust_range","value":1.0},{"default_value":1.0,"name":"effects_adjust_rotate","value":1.0},{"default_value":0.3333333333,"name":"effects_adjust_speed","value":0.3333333333}],"algorithm_artifact_path":"","apply_target_type":2,"apply_time_range":null,"category_id":"27296","category_name":"Đang thịnh hành","common_keyframes":[],"covering_relation_change":0,"disable_effect_faces":[],"effect_id":"7399467327726587141","effect_mask":[],"enable_mask":true,"formula_id":"","id":"A5869450-32EE-4a9f-B570-22BB355D102F","item_effect_type":0,"name":"Lắc lư","path":"C:/Users/ADMIN/AppData/Local/CapCut/User Data/Cache/effect/7399467327726587141/2b806738c3a5e3126a2013cebc2c4913","platform":"all","render_index":0,"request_id":"202504041519068FF94CA9311E45BD5A0B","resource_id":"7399467327726587141","source_platform":1,"time_range":null,"track_render_index":0,"type":"video_effect","value":1.0,"version":""},{"adjust_params":[{"default_value":0.5,"name":"effects_adjust_blur","value":0.5}],"algorithm_artifact_path":"","apply_target_type":2,"apply_time_range":null,"category_id":"27296","category_name":"Đang thịnh hành","common_keyframes":[],"covering_relation_change":0,"disable_effect_faces":[],"effect_id":"7399464929830423813","effect_mask":[],"enable_mask":true,"formula_id":"","id":"1C78E724-317C-471c-BCCF-BFEC7941238E","item_effect_type":0,"name":"Mờ","path":"C:/Users/ADMIN/AppData/Local/CapCut/User Data/Cache/effect/7399464929830423813/2db7bf49d9349e308ef0f46c39b14abf","platform":"all","render_index":0,"request_id":"202504041519068FF94CA9311E45BD5A0B","resource_id":"7399464929830423813","source_platform":1,"time_range":null,"track_render_index":0,"type":"video_effect","value":1.0,"version":""},{"adjust_params":[{"default_value":0.5,"name":"effects_adjust_luminance","value":0.5},{"default_value":0.30000001192092896,"name":"effects_adjust_blur","value":0.30000001192092896},{"default_value":0.30000001192092896,"name":"effects_adjust_intensity","value":0.30000001192092896},{"default_value":0.3333333730697632,"name":"effects_adjust_speed","value":0.3333333730697632},{"default_value":0.699999988079071,"name":"effects_adjust_range","value":0.699999988079071}],"algorithm_artifact_path":"","apply_target_type":2,"apply_time_range":null,"category_id":"27296","category_name":"Đang thịnh hành","common_keyframes":[],"covering_relation_change":0,"disable_effect_faces":[],"effect_id":"7399466987316890886","effect_mask":[],"enable_mask":true,"formula_id":"","id":"1C628CB7-C276-4b06-ACB8-34A8A599EF5F","item_effect_type":0,"name":"Quét Blu-ray","path":"C:/Users/ADMIN/AppData/Local/CapCut/User Data/Cache/effect/7399466987316890886/adf71a81fed9244a306fd47bf294009d","platform":"all","render_index":0,"request_id":"202504041519068FF94CA9311E45BD5A0B","resource_id":"7399466987316890886","source_platform":1,"time_range":null,"track_render_index":0,"type":"video_effect","value":1.0,"version":""}],"video_trackings":[],"videos":[{"aigc_history_id":"","aigc_item_id":"","aigc_type":"none","audio_fade":null,"beauty_body_preset_id":"","beauty_face_auto_preset":{"name":"","preset_id":"","rate_map":""},"beauty_face_auto_preset_infos":[],"beauty_face_preset_infos":[],"cartoon_path":"","category_id":"","category_name":"local","check_flag":62978047,"crop":{"lower_left_x":0.0,"lower_left_y":1.0,"lower_right_x":1.0,"lower_right_y":1.0,"upper_left_x":0.0,"upper_left_y":0.0,"upper_right_x":1.0,"upper_right_y":0.0},"crop_ratio":"free","crop_scale":1.0,"duration":10800000000,"extra_type_option":0,"formula_id":"","freeze":null,"has_audio":false,"has_sound_separated":false,"height":640,"id":"5C0FA04D-1A21-46d8-B64F-7D83A801EE71","intensifies_audio_path":"","intensifies_path":"","is_ai_generate_content":false,"is_copyright":false,"is_text_edit_overdub":false,"is_unified_beauty_mode":false,"live_photo_cover_path":"","live_photo_timestamp":-1,"local_id":"","local_material_from":"","local_material_id":"","material_id":"","material_name":"frame_0.jpg","material_url":"","matting":{"custom_matting_id":"","enable_matting_stroke":false,"expansion":0,"feather":0,"flag":0,"has_use_quick_brush":false,"has_use_quick_eraser":false,"interactiveTime":[],"path":"","reverse":false,"strokes":[]},"media_path":"","multi_camera_info":null,"object_locked":null,"origin_material_id":"","path":"E:/Capture/static/uploads/keyframes/Pregnant_Police_Officer_Saved_from_Tea_S_f851430b/frame_0.jpg","picture_from":"none","picture_set_category_id":"","picture_set_category_name":"","request_id":"","reverse_intensifies_path":"","reverse_path":"","smart_match_info":null,"smart_motion":null,"source":0,"source_platform":0,"stable":{"matrix_path":"","stable_level":0,"time_range":{"duration":0,"start":0}},"team_id":"","type":"photo","video_algorithm":{"ai_background_configs":[],"ai_expression_driven":null,"ai_motion_driven":null,"aigc_generate":null,"algorithms":[],"complement_frame_config":null,"deflicker":null,"gameplay_configs":[],"motion_blur_config":null,"mouth_shape_driver":null,"noise_reduction":null,"path":"","quality_enhance":null,"smart_complement_frame":null,"super_resolution":null,"time_range":null},"width":360},{"aigc_history_id":"","aigc_item_id":"","aigc_type":"none","audio_fade":null,"beauty_body_preset_id":"","beauty_face_auto_preset":{"name":"","preset_id":"","rate_map":""},"beauty_face_auto_preset_infos":[],"beauty_face_preset_infos":[],"cartoon_path":"","category_id":"","category_name":"local","check_flag":62978047,"crop":{"lower_left_x":0.0,"lower_left_y":1.0,"lower_right_x":1.0,"lower_right_y":1.0,"upper_left_x":0.0,"upper_left_y":0.0,"upper_right_x":1.0,"upper_right_y":0.0},"crop_ratio":"free","crop_scale":1.0,"duration":10800000000,"extra_type_option":0,"formula_id":"","freeze":null,"has_audio":false,"has_sound_separated":false,"height":640,"id":"024A1AC6-262B-450d-B242-0A9E2EA809C8","intensifies_audio_path":"","intensifies_path":"","is_ai_generate_content":false,"is_copyright":false,"is_text_edit_overdub":false,"is_unified_beauty_mode":false,"live_photo_cover_path":"","live_photo_timestamp":-1,"local_id":"","local_material_from":"","local_material_id":"","material_id":"","material_name":"frame_1.jpg","material_url":"","matting":{"custom_matting_id":"","enable_matting_stroke":false,"expansion":0,"feather":0,"flag":0,"has_use_quick_brush":false,"has_use_quick_eraser":false,"interactiveTime":[],"path":"","reverse":false,"strokes":[]},"media_path":"","multi_camera_info":null,"object_locked":null,"origin_material_id":"","path":"E:/Capture/static/uploads/keyframes/Pregnant_Police_Officer_Saved_from_Tea_S_f851430b/frame_1.jpg","picture_from":"none","picture_set_category_id":"","picture_set_category_name":"","request_id":"","reverse_intensifies_path":"","reverse_path":"","smart_match_info":null,"smart_motion":null,"source":0,"source_platform":0,"stable":{"matrix_path":"","stable_level":0,"time_range":{"duration":0,"start":0}},"team_id":"","type":"photo","video_algorithm":{"ai_background_configs":[],"ai_expression_driven":null,"ai_motion_driven":null,"aigc_generate":null,"algorithms":[],"complement_frame_config":null,"deflicker":null,"gameplay_configs":[],"motion_blur_config":null,"mouth_shape_driver":null,"noise_reduction":null,"path":"","quality_enhance":null,"smart_complement_frame":null,"super_resolution":null,"time_range":null},"width":360},{"aigc_history_id":"","aigc_item_id":"","aigc_type":"none","audio_fade":null,"beauty_body_preset_id":"","beauty_face_auto_preset":{"name":"","preset_id":"","rate_map":""},"beauty_face_auto_preset_infos":[],"beauty_face_preset_infos":[],"cartoon_path":"","category_id":"","category_name":"local","check_flag":62978047,"crop":{"lower_left_x":0.0,"lower_left_y":1.0,"lower_right_x":1.0,"lower_right_y":1.0,"upper_left_x":0.0,"upper_left_y":0.0,"upper_right_x":1.0,"upper_right_y":0.0},"crop_ratio":"free","crop_scale":1.0,"duration":10800000000,"extra_type_option":0,"formula_id":"","freeze":null,"has_audio":false,"has_sound_separated":false,"height":640,"id":"A41F99AF-1285-4d1f-B02D-C79D03516640","intensifies_audio_path":"","intensifies_path":"","is_ai_generate_content":false,"is_copyright":false,"is_text_edit_overdub":false,"is_unified_beauty_mode":false,"live_photo_cover_path":"","live_photo_timestamp":-1,"local_id":"","local_material_from":"","local_material_id":"","material_id":"","material_name":"frame_2.jpg","material_url":"","matting":{"custom_matting_id":"","enable_matting_stroke":false,"expansion":0,"feather":0,"flag":0,"has_use_quick_brush":false,"has_use_quick_eraser":false,"interactiveTime":[],"path":"","reverse":false,"strokes":[]},"media_path":"","multi_camera_info":null,"object_locked":null,"origin_material_id":"","path":"E:/Capture/static/uploads/keyframes/Pregnant_Police_Officer_Saved_from_Tea_S_f851430b/frame_2.jpg","picture_from":"none","picture_set_category_id":"","picture_set_category_name":"","request_id":"","reverse_intensifies_path":"","reverse_path":"","smart_match_info":null,"smart_motion":null,"source":0,"source_platform":0,"stable":{"matrix_path":"","stable_level":0,"time_range":{"duration":0,"start":0}},"team_id":"","type":"photo","video_algorithm":{"ai_background_configs":[],"ai_expression_driven":null,"ai_motion_driven":null,"aigc_generate":null,"algorithms":[],"complement_frame_config":null,"deflicker":null,"gameplay_configs":[],"motion_blur_config":null,"mouth_shape_driver":null,"noise_reduction":null,"path":"","quality_enhance":null,"smart_complement_frame":null,"super_resolution":null,"time_range":null},"width":360},{"aigc_history_id":"","aigc_item_id":"","aigc_type":"none","audio_fade":null,"beauty_body_preset_id":"","beauty_face_auto_preset":{"name":"","preset_id":"","rate_map":""},"beauty_face_auto_preset_infos":[],"beauty_face_preset_infos":[],"cartoon_path":"","category_id":"","category_name":"local","check_flag":62978047,"crop":{"lower_left_x":0.0,"lower_left_y":1.0,"lower_right_x":1.0,"lower_right_y":1.0,"upper_left_x":0.0,"upper_left_y":0.0,"upper_right_x":1.0,"upper_right_y":0.0},"crop_ratio":"free","crop_scale":1.0,"duration":10800000000,"extra_type_option":0,"formula_id":"","freeze":null,"has_audio":false,"has_sound_separated":false,"height":640,"id":"6AFF0D47-F3AF-4d6e-931F-2FEA60331D7E","intensifies_audio_path":"","intensifies_path":"","is_ai_generate_content":false,"is_copyright":false,"is_text_edit_overdub":false,"is_unified_beauty_mode":false,"live_photo_cover_path":"","live_photo_timestamp":-1,"local_id":"","local_material_from":"","local_material_id":"","material_id":"","material_name":"frame_3.jpg","material_url":"","matting":{"custom_matting_id":"","enable_matting_stroke":false,"expansion":0,"feather":0,"flag":0,"has_use_quick_brush":false,"has_use_quick_eraser":false,"interactiveTime":[],"path":"","reverse":false,"strokes":[]},"media_path":"","multi_camera_info":null,"object_locked":null,"origin_material_id":"","path":"E:/Capture/static/uploads/keyframes/Pregnant_Police_Officer_Saved_from_Tea_S_f851430b/frame_3.jpg","picture_from":"none","picture_set_category_id":"","picture_set_category_name":"","request_id":"","reverse_intensifies_path":"","reverse_path":"","smart_match_info":null,"smart_motion":null,"source":0,"source_platform":0,"stable":{"matrix_path":"","stable_level":0,"time_range":{"duration":0,"start":0}},"team_id":"","type":"photo","video_algorithm":{"ai_background_configs":[],"ai_expression_driven":null,"ai_motion_driven":null,"aigc_generate":null,"algorithms":[],"complement_frame_config":null,"deflicker":null,"gameplay_configs":[],"motion_blur_config":null,"mouth_shape_driver":null,"noise_reduction":null,"path":"","quality_enhance":null,"smart_complement_frame":null,"super_resolution":null,"time_range":null},"width":360},{"aigc_history_id":"","aigc_item_id":"","aigc_type":"none","audio_fade":null,"beauty_body_preset_id":"","beauty_face_auto_preset":{"name":"","preset_id":"","rate_map":""},"beauty_face_auto_preset_infos":[],"beauty_face_preset_infos":[],"cartoon_path":"","category_id":"","category_name":"local","check_flag":62978047,"crop":{"lower_left_x":0.0,"lower_left_y":1.0,"lower_right_x":1.0,"lower_right_y":1.0,"upper_left_x":0.0,"upper_left_y":0.0,"upper_right_x":1.0,"upper_right_y":0.0},"crop_ratio":"free","crop_scale":1.0,"duration":10800000000,"extra_type_option":0,"formula_id":"","freeze":null,"has_audio":false,"has_sound_separated":false,"height":640,"id":"D42C5A67-1359-4688-8E63-A40D13FB6B7D","intensifies_audio_path":"","intensifies_path":"","is_ai_generate_content":false,"is_copyright":false,"is_text_edit_overdub":false,"is_unified_beauty_mode":false,"live_photo_cover_path":"","live_photo_timestamp":-1,"local_id":"","local_material_from":"","local_material_id":"","material_id":"","material_name":"frame_4.jpg","material_url":"","matting":{"custom_matting_id":"","enable_matting_stroke":false,"expansion":0,"feather":0,"flag":0,"has_use_quick_brush":false,"has_use_quick_eraser":false,"interactiveTime":[],"path":"","reverse":false,"strokes":[]},"media_path":"","multi_camera_info":null,"object_locked":null,"origin_material_id":"","path":"E:/Capture/static/uploads/keyframes/Pregnant_Police_Officer_Saved_from_Tea_S_f851430b/frame_4.jpg","picture_from":"none","picture_set_category_id":"","picture_set_category_name":"","request_id":"","reverse_intensifies_path":"","reverse_path":"","smart_match_info":null,"smart_motion":null,"source":0,"source_platform":0,"stable":{"matrix_path":"","stable_level":0,"time_range":{"duration":0,"start":0}},"team_id":"","type":"photo","video_algorithm":{"ai_background_configs":[],"ai_expression_driven":null,"ai_motion_driven":null,"aigc_generate":null,"algorithms":[],"complement_frame_config":null,"deflicker":null,"gameplay_configs":[],"motion_blur_config":null,"mouth_shape_driver":null,"noise_reduction":null,"path":"","quality_enhance":null,"smart_complement_frame":null,"super_resolution":null,"time_range":null},"width":360},{"aigc_history_id":"","aigc_item_id":"","aigc_type":"none","audio_fade":null,"beauty_body_preset_id":"","beauty_face_auto_preset":{"name":"","preset_id":"","rate_map":""},"beauty_face_auto_preset_infos":[],"beauty_face_preset_infos":[],"cartoon_path":"","category_id":"","category_name":"local","check_flag":62978047,"crop":{"lower_left_x":0.0,"lower_left_y":1.0,"lower_right_x":1.0,"lower_right_y":1.0,"upper_left_x":0.0,"upper_left_y":0.0,"upper_right_x":1.0,"upper_right_y":0.0},"crop_ratio":"free","crop_scale":1.0,"duration":10800000000,"extra_type_option":0,"formula_id":"","freeze":null,"has_audio":false,"has_sound_separated":false,"height":640,"id":"7DC945F4-17DD-400c-B56C-19B69525C023","intensifies_audio_path":"","intensifies_path":"","is_ai_generate_content":false,"is_copyright":false,"is_text_edit_overdub":false,"is_unified_beauty_mode":false,"live_photo_cover_path":"","live_photo_timestamp":-1,"local_id":"","local_material_from":"","local_material_id":"","material_id":"","material_name":"frame_5.jpg","material_url":"","matting":{"custom_matting_id":"","enable_matting_stroke":false,"expansion":0,"feather":0,"flag":0,"has_use_quick_brush":false,"has_use_quick_eraser":false,"interactiveTime":[],"path":"","reverse":false,"strokes":[]},"media_path":"","multi_camera_info":null,"object_locked":null,"origin_material_id":"","path":"E:/Capture/static/uploads/keyframes/Pregnant_Police_Officer_Saved_from_Tea_S_f851430b/frame_5.jpg","picture_from":"none","picture_set_category_id":"","picture_set_category_name":"","request_id":"","reverse_intensifies_path":"","reverse_path":"","smart_match_info":null,"smart_motion":null,"source":0,"source_platform":0,"stable":{"matrix_path":"","stable_level":0,"time_range":{"duration":0,"start":0}},"team_id":"","type":"photo","video_algorithm":{"ai_background_configs":[],"ai_expression_driven":null,"ai_motion_driven":null,"aigc_generate":null,"algorithms":[],"complement_frame_config":null,"deflicker":null,"gameplay_configs":[],"motion_blur_config":null,"mouth_shape_driver":null,"noise_reduction":null,"path":"","quality_enhance":null,"smart_complement_frame":null,"super_resolution":null,"time_range":null},"width":360},{"aigc_history_id":"","aigc_item_id":"","aigc_type":"none","audio_fade":null,"beauty_body_preset_id":"","beauty_face_auto_preset":{"name":"","preset_id":"","rate_map":""},"beauty_face_auto_preset_infos":[],"beauty_face_preset_infos":[],"cartoon_path":"","category_id":"","category_name":"local","check_flag":62978047,"crop":{"lower_left_x":0.0,"lower_left_y":1.0,"lower_right_x":1.0,"lower_right_y":1.0,"upper_left_x":0.0,"upper_left_y":0.0,"upper_right_x":1.0,"upper_right_y":0.0},"crop_ratio":"free","crop_scale":1.0,"duration":10800000000,"extra_type_option":0,"formula_id":"","freeze":null,"has_audio":false,"has_sound_separated":false,"height":640,"id":"2E35BEAE-4B09-4653-9725-74DDC52EEAA8","intensifies_audio_path":"","intensifies_path":"","is_ai_generate_content":false,"is_copyright":false,"is_text_edit_overdub":false,"is_unified_beauty_mode":false,"live_photo_cover_path":"","live_photo_timestamp":-1,"local_id":"","local_material_from":"","local_material_id":"","material_id":"","material_name":"frame_6.jpg","material_url":"","matting":{"custom_matting_id":"","enable_matting_stroke":false,"expansion":0,"feather":0,"flag":0,"has_use_quick_brush":false,"has_use_quick_eraser":false,"interactiveTime":[],"path":"","reverse":false,"strokes":[]},"media_path":"","multi_camera_info":null,"object_locked":null,"origin_material_id":"","path":"E:/Capture/static/uploads/keyframes/Pregnant_Police_Officer_Saved_from_Tea_S_f851430b/frame_6.jpg","picture_from":"none","picture_set_category_id":"","picture_set_category_name":"","request_id":"","reverse_intensifies_path":"","reverse_path":"","smart_match_info":null,"smart_motion":null,"source":0,"source_platform":0,"stable":{"matrix_path":"","stable_level":0,"time_range":{"duration":0,"start":0}},"team_id":"","type":"photo","video_algorithm":{"ai_background_configs":[],"ai_expression_driven":null,"ai_motion_driven":null,"aigc_generate":null,"algorithms":[],"complement_frame_config":null,"deflicker":null,"gameplay_configs":[],"motion_blur_config":null,"mouth_shape_driver":null,"noise_reduction":null,"path":"","quality_enhance":null,"smart_complement_frame":null,"super_resolution":null,"time_range":null},"width":360},{"aigc_history_id":"","aigc_item_id":"","aigc_type":"none","audio_fade":null,"beauty_body_preset_id":"","beauty_face_auto_preset":{"name":"","preset_id":"","rate_map":""},"beauty_face_auto_preset_infos":[],"beauty_face_preset_infos":[],"cartoon_path":"","category_id":"","category_name":"local","check_flag":62978047,"crop":{"lower_left_x":0.0,"lower_left_y":1.0,"lower_right_x":1.0,"lower_right_y":1.0,"upper_left_x":0.0,"upper_left_y":0.0,"upper_right_x":1.0,"upper_right_y":0.0},"crop_ratio":"free","crop_scale":1.0,"duration":10800000000,"extra_type_option":0,"formula_id":"","freeze":null,"has_audio":false,"has_sound_separated":false,"height":640,"id":"78F22A9A-2D91-456a-B21D-F6340A349761","intensifies_audio_path":"","intensifies_path":"","is_ai_generate_content":false,"is_copyright":false,"is_text_edit_overdub":false,"is_unified_beauty_mode":false,"live_photo_cover_path":"","live_photo_timestamp":-1,"local_id":"","local_material_from":"","local_material_id":"","material_id":"","material_name":"frame_8.jpg","material_url":"","matting":{"custom_matting_id":"","enable_matting_stroke":false,"expansion":0,"feather":0,"flag":0,"has_use_quick_brush":false,"has_use_quick_eraser":false,"interactiveTime":[],"path":"","reverse":false,"strokes":[]},"media_path":"","multi_camera_info":null,"object_locked":null,"origin_material_id":"","path":"E:/Capture/static/uploads/keyframes/Pregnant_Police_Officer_Saved_from_Tea_S_f851430b/frame_8.jpg","picture_from":"none","picture_set_category_id":"","picture_set_category_name":"","request_id":"","reverse_intensifies_path":"","reverse_path":"","smart_match_info":null,"smart_motion":null,"source":0,"source_platform":0,"stable":{"matrix_path":"","stable_level":0,"time_range":{"duration":0,"start":0}},"team_id":"","type":"photo","video_algorithm":{"ai_background_configs":[],"ai_expression_driven":null,"ai_motion_driven":null,"aigc_generate":null,"algorithms":[],"complement_frame_config":null,"deflicker":null,"gameplay_configs":[],"motion_blur_config":null,"mouth_shape_driver":null,"noise_reduction":null,"path":"","quality_enhance":null,"smart_complement_frame":null,"super_resolution":null,"time_range":null},"width":360},{"aigc_history_id":"","aigc_item_id":"","aigc_type":"none","audio_fade":null,"beauty_body_preset_id":"","beauty_face_auto_preset":{"name":"","preset_id":"","rate_map":""},"beauty_face_auto_preset_infos":[],"beauty_face_preset_infos":[],"cartoon_path":"","category_id":"","category_name":"local","check_flag":62978047,"crop":{"lower_left_x":0.0,"lower_left_y":1.0,"lower_right_x":1.0,"lower_right_y":1.0,"upper_left_x":0.0,"upper_left_y":0.0,"upper_right_x":1.0,"upper_right_y":0.0},"crop_ratio":"free","crop_scale":1.0,"duration":10800000000,"extra_type_option":0,"formula_id":"","freeze":null,"has_audio":false,"has_sound_separated":false,"height":640,"id":"646F1055-5A87-4a55-8A15-9D3D5612C51E","intensifies_audio_path":"","intensifies_path":"","is_ai_generate_content":false,"is_copyright":false,"is_text_edit_overdub":false,"is_unified_beauty_mode":false,"live_photo_cover_path":"","live_photo_timestamp":-1,"local_id":"","local_material_from":"","local_material_id":"","material_id":"","material_name":"frame_9.jpg","material_url":"","matting":{"custom_matting_id":"","enable_matting_stroke":false,"expansion":0,"feather":0,"flag":0,"has_use_quick_brush":false,"has_use_quick_eraser":false,"interactiveTime":[],"path":"","reverse":false,"strokes":[]},"media_path":"","multi_camera_info":null,"object_locked":null,"origin_material_id":"","path":"E:/Capture/static/uploads/keyframes/Pregnant_Police_Officer_Saved_from_Tea_S_f851430b/frame_9.jpg","picture_from":"none","picture_set_category_id":"","picture_set_category_name":"","request_id":"","reverse_intensifies_path":"","reverse_path":"","smart_match_info":null,"smart_motion":null,"source":0,"source_platform":0,"stable":{"matrix_path":"","stable_level":0,"time_range":{"duration":0,"start":0}},"team_id":"","type":"photo","video_algorithm":{"ai_background_configs":[],"ai_expression_driven":null,"ai_motion_driven":null,"aigc_generate":null,"algorithms":[],"complement_frame_config":null,"deflicker":null,"gameplay_configs":[],"motion_blur_config":null,"mouth_shape_driver":null,"noise_reduction":null,"path":"","quality_enhance":null,"smart_complement_frame":null,"super_resolution":null,"time_range":null},"width":360},{"aigc_history_id":"","aigc_item_id":"","aigc_type":"none","audio_fade":null,"beauty_body_preset_id":"","beauty_face_auto_preset":{"name":"","preset_id":"","rate_map":""},"beauty_face_auto_preset_infos":[],"beauty_face_preset_infos":[],"cartoon_path":"","category_id":"","category_name":"local","check_flag":62978047,"crop":{"lower_left_x":0.0,"lower_left_y":1.0,"lower_right_x":1.0,"lower_right_y":1.0,"upper_left_x":0.0,"upper_left_y":0.0,"upper_right_x":1.0,"upper_right_y":0.0},"crop_ratio":"free","crop_scale":1.0,"duration":10800000000,"extra_type_option":0,"formula_id":"","freeze":null,"has_audio":false,"has_sound_separated":false,"height":640,"id":"D1E193A0-A2CA-4a4a-82F4-AEFD31764B04","intensifies_audio_path":"","intensifies_path":"","is_ai_generate_content":false,"is_copyright":false,"is_text_edit_overdub":false,"is_unified_beauty_mode":false,"live_photo_cover_path":"","live_photo_timestamp":-1,"local_id":"","local_material_from":"","local_material_id":"","material_id":"","material_name":"frame_10.jpg","material_url":"","matting":{"custom_matting_id":"","enable_matting_stroke":false,"expansion":0,"feather":0,"flag":0,"has_use_quick_brush":false,"has_use_quick_eraser":false,"interactiveTime":[],"path":"","reverse":false,"strokes":[]},"media_path":"","multi_camera_info":null,"object_locked":null,"origin_material_id":"","path":"E:/Capture/static/uploads/keyframes/Pregnant_Police_Officer_Saved_from_Tea_S_f851430b/frame_10.jpg","picture_from":"none","picture_set_category_id":"","picture_set_category_name":"","request_id":"","reverse_intensifies_path":"","reverse_path":"","smart_match_info":null,"smart_motion":null,"source":0,"source_platform":0,"stable":{"matrix_path":"","stable_level":0,"time_range":{"duration":0,"start":0}},"team_id":"","type":"photo","video_algorithm":{"ai_background_configs":[],"ai_expression_driven":null,"ai_motion_driven":null,"aigc_generate":null,"algorithms":[],"complement_frame_config":null,"deflicker":null,"gameplay_configs":[],"motion_blur_config":null,"mouth_shape_driver":null,"noise_reduction":null,"path":"","quality_enhance":null,"smart_complement_frame":null,"super_resolution":null,"time_range":null},"width":360},{"aigc_history_id":"","aigc_item_id":"","aigc_type":"none","audio_fade":null,"beauty_body_preset_id":"","beauty_face_auto_preset":{"name":"","preset_id":"","rate_map":""},"beauty_face_auto_preset_infos":[],"beauty_face_preset_infos":[],"cartoon_path":"","category_id":"","category_name":"local","check_flag":62978047,"crop":{"lower_left_x":0.0,"lower_left_y":1.0,"lower_right_x":1.0,"lower_right_y":1.0,"upper_left_x":0.0,"upper_left_y":0.0,"upper_right_x":1.0,"upper_right_y":0.0},"crop_ratio":"free","crop_scale":1.0,"duration":10800000000,"extra_type_option":0,"formula_id":"","freeze":null,"has_audio":false,"has_sound_separated":false,"height":640,"id":"1278D7D6-E36D-4209-8106-3D3760BA9CB4","intensifies_audio_path":"","intensifies_path":"","is_ai_generate_content":false,"is_copyright":false,"is_text_edit_overdub":false,"is_unified_beauty_mode":false,"live_photo_cover_path":"","live_photo_timestamp":-1,"local_id":"","local_material_from":"","local_material_id":"","material_id":"","material_name":"frame_11.jpg","material_url":"","matting":{"custom_matting_id":"","enable_matting_stroke":false,"expansion":0,"feather":0,"flag":0,"has_use_quick_brush":false,"has_use_quick_eraser":false,"interactiveTime":[],"path":"","reverse":false,"strokes":[]},"media_path":"","multi_camera_info":null,"object_locked":null,"origin_material_id":"","path":"E:/Capture/static/uploads/keyframes/Pregnant_Police_Officer_Saved_from_Tea_S_f851430b/frame_11.jpg","picture_from":"none","picture_set_category_id":"","picture_set_category_name":"","request_id":"","reverse_intensifies_path":"","reverse_path":"","smart_match_info":null,"smart_motion":null,"source":0,"source_platform":0,"stable":{"matrix_path":"","stable_level":0,"time_range":{"duration":0,"start":0}},"team_id":"","type":"photo","video_algorithm":{"ai_background_configs":[],"ai_expression_driven":null,"ai_motion_driven":null,"aigc_generate":null,"algorithms":[],"complement_frame_config":null,"deflicker":null,"gameplay_configs":[],"motion_blur_config":null,"mouth_shape_driver":null,"noise_reduction":null,"path":"","quality_enhance":null,"smart_complement_frame":null,"super_resolution":null,"time_range":null},"width":360},{"aigc_history_id":"","aigc_item_id":"","aigc_type":"none","audio_fade":null,"beauty_body_preset_id":"","beauty_face_auto_preset":{"name":"","preset_id":"","rate_map":""},"beauty_face_auto_preset_infos":[],"beauty_face_preset_infos":[],"cartoon_path":"","category_id":"","category_name":"local","check_flag":62978047,"crop":{"lower_left_x":0.0,"lower_left_y":1.0,"lower_right_x":1.0,"lower_right_y":1.0,"upper_left_x":0.0,"upper_left_y":0.0,"upper_right_x":1.0,"upper_right_y":0.0},"crop_ratio":"free","crop_scale":1.0,"duration":10800000000,"extra_type_option":0,"formula_id":"","freeze":null,"has_audio":false,"has_sound_separated":false,"height":640,"id":"8C12553A-7166-4218-8E4B-29A8BE5565D7","intensifies_audio_path":"","intensifies_path":"","is_ai_generate_content":false,"is_copyright":false,"is_text_edit_overdub":false,"is_unified_beauty_mode":false,"live_photo_cover_path":"","live_photo_timestamp":-1,"local_id":"","local_material_from":"","local_material_id":"","material_id":"","material_name":"frame_12.jpg","material_url":"","matting":{"custom_matting_id":"","enable_matting_stroke":false,"expansion":0,"feather":0,"flag":0,"has_use_quick_brush":false,"has_use_quick_eraser":false,"interactiveTime":[],"path":"","reverse":false,"strokes":[]},"media_path":"","multi_camera_info":null,"object_locked":null,"origin_material_id":"","path":"E:/Capture/static/uploads/keyframes/Pregnant_Police_Officer_Saved_from_Tea_S_f851430b/frame_12.jpg","picture_from":"none","picture_set_category_id":"","picture_set_category_name":"","request_id":"","reverse_intensifies_path":"","reverse_path":"","smart_match_info":null,"smart_motion":null,"source":0,"source_platform":0,"stable":{"matrix_path":"","stable_level":0,"time_range":{"duration":0,"start":0}},"team_id":"","type":"photo","video_algorithm":{"ai_background_configs":[],"ai_expression_driven":null,"ai_motion_driven":null,"aigc_generate":null,"algorithms":[],"complement_frame_config":null,"deflicker":null,"gameplay_configs":[],"motion_blur_config":null,"mouth_shape_driver":null,"noise_reduction":null,"path":"","quality_enhance":null,"smart_complement_frame":null,"super_resolution":null,"time_range":null},"width":360}],"vocal_beautifys":[],"vocal_separations":[{"choice":0,"id":"6193EDD1-3BB3-4789-8F34-30A10E6870FB","production_path":"","removed_sounds":[],"time_range":null,"type":"vocal_separation"},{"choice":0,"id":"D1992B38-E969-4e31-B4A1-738484A54C4D","production_path":"","removed_sounds":[],"time_range":null,"type":"vocal_separation"},{"choice":0,"id":"1AA3DE03-FAF9-4e41-BBCA-CB34CCC845F6","production_path":"","removed_sounds":[],"time_range":null,"type":"vocal_separation"},{"choice":0,"id":"D0828033-8423-4e71-9D09-D1EF2707C9D7","production_path":"","removed_sounds":[],"time_range":null,"type":"vocal_separation"},{"choice":0,"id":"0590ACAB-EA03-41f8-8066-BD2E2EF207A1","production_path":"","removed_sounds":[],"time_range":null,"type":"vocal_separation"},{"choice":0,"id":"73FFC357-E430-49d6-A2D9-2071B7723728","production_path":"","removed_sounds":[],"time_range":null,"type":"vocal_separation"},{"choice":0,"id":"F962A164-100B-46ce-A603-AE8CB929F356","production_path":"","removed_sounds":[],"time_range":null,"type":"vocal_separation"},{"choice":0,"id":"4B58E78B-AFA0-4da9-B8FE-72D00DC77EE0","production_path":"","removed_sounds":[],"time_range":null,"type":"vocal_separation"},{"choice":0,"id":"3E317FB2-3075-4a8b-A50A-BCC3AFAA0925","production_path":"","removed_sounds":[],"time_range":null,"type":"vocal_separation"},{"choice":0,"id":"5D7370F6-A277-4176-82A8-7BF44E8CC39A","production_path":"","removed_sounds":[],"time_range":null,"type":"vocal_separation"},{"choice":0,"id":"FF7FEA57-6B39-49ef-A821-3B9FEDC62BC0","production_path":"","removed_sounds":[],"time_range":null,"type":"vocal_separation"},{"choice":0,"id":"2E0C3B0F-BBAB-4b0e-90CA-D66FFC1BCBBF","production_path":"","removed_sounds":[],"time_range":null,"type":"vocal_separation"}]},"mutable_config":null,"name":"","new_version":"132.0.0","path":"","platform":{"app_id":359289,"app_source":"cc","app_version":"5.9.1","device_id":"f9bd86713d1d274b6c423d29e7bbc922","hard_disk_id":"d63310c0183b8d412aeed20cf11a65e4","mac_address":"032b70e2df01a4a83f0dc98dfc5d64ec","os":"windows","os_version":"10.0.19045"},"relationships":[],"render_index_track_mode_on":true,"retouch_cover":null,"source":"default","static_cover_image_path":"","time_marks":null,"tracks":[{"attribute":0,"flag":0,"id":"9E97287A-48F2-4025-A91D-EC2D09CA8DCA","is_default_name":true,"name":"","segments":[{"caption_info":null,"cartoon":false,"clip":{"alpha":1.0,"flip":{"horizontal":false,"vertical":false},"rotation":0.0,"scale":{"x":1.0,"y":1.0},"transform":{"x":0.0,"y":0.0}},"color_correct_alg_result":"","common_keyframes":[],"desc":"","digital_human_template_group_id":"","enable_adjust":true,"enable_adjust_mask":false,"enable_color_correct_adjust":false,"enable_color_curves":true,"enable_color_match_adjust":false,"enable_color_wheels":true,"enable_hsl":false,"enable_lut":true,"enable_smart_color_adjust":false,"enable_video_mask":true,"extra_material_refs":["86EF8775-D10E-4152-B306-EF75D4F13A0E","EDC9112D-3A53-4c5d-990F-892DD21699CB","42A95541-2C10-4c13-A474-12A38818D149","1E6D1B66-FCB1-4f8c-81CC-4734CD87A0E8","7BC33924-8EB5-4317-A539-16B49884B501","6193EDD1-3BB3-4789-8F34-30A10E6870FB"],"group_id":"","hdr_settings":{"intensity":1.0,"mode":1,"nits":1000},"id":"DFF5B6C3-7E16-46d5-9973-8F20FF81FC60","intensifies_audio":false,"is_loop":false,"is_placeholder":false,"is_tone_modify":false,"keyframe_refs":[],"last_nonzero_volume":1.0,"lyric_keyframes":null,"material_id":"5C0FA04D-1A21-46d8-B64F-7D83A801EE71","raw_segment_id":"","render_index":0,"render_timerange":{"duration":0,"start":0},"responsive_layout":{"enable":false,"horizontal_pos_layout":0,"size_layout":0,"target_follow":"","vertical_pos_layout":0},"reverse":false,"source_timerange":{"duration":5000000,"start":0},"speed":1.0,"state":0,"target_timerange":{"duration":5000000,"start":0},"template_id":"","template_scene":"default","track_attribute":0,"track_render_index":0,"uniform_scale":{"on":true,"value":1.0},"visible":true,"volume":1.0},{"caption_info":null,"cartoon":false,"clip":{"alpha":1.0,"flip":{"horizontal":false,"vertical":false},"rotation":0.0,"scale":{"x":1.0,"y":1.0},"transform":{"x":0.0,"y":0.0}},"color_correct_alg_result":"","common_keyframes":[],"desc":"","digital_human_template_group_id":"","enable_adjust":true,"enable_adjust_mask":false,"enable_color_correct_adjust":false,"enable_color_curves":true,"enable_color_match_adjust":false,"enable_color_wheels":true,"enable_hsl":false,"enable_lut":true,"enable_smart_color_adjust":false,"enable_video_mask":true,"extra_material_refs":["5595758D-D894-4b7f-B6CA-F0CD225BA8D4","480D5EED-E090-43f3-9C57-CA2FAA417637","6E5CED5A-D5A5-47f7-AF76-73482758D938","3045433C-9D57-487d-A8DD-2072D3BB9E8C","3E8A97C0-BECF-493b-8B89-97C0632A4088","D1992B38-E969-4e31-B4A1-738484A54C4D"],"group_id":"","hdr_settings":{"intensity":1.0,"mode":1,"nits":1000},"id":"DEFB8144-B720-4523-8974-1105575D5924","intensifies_audio":false,"is_loop":false,"is_placeholder":false,"is_tone_modify":false,"keyframe_refs":[],"last_nonzero_volume":1.0,"lyric_keyframes":null,"material_id":"024A1AC6-262B-450d-B242-0A9E2EA809C8","raw_segment_id":"","render_index":0,"render_timerange":{"duration":0,"start":0},"responsive_layout":{"enable":false,"horizontal_pos_layout":0,"size_layout":0,"target_follow":"","vertical_pos_layout":0},"reverse":false,"source_timerange":{"duration":5000000,"start":0},"speed":1.0,"state":0,"target_timerange":{"duration":5000000,"start":5000000},"template_id":"","template_scene":"default","track_attribute":0,"track_render_index":0,"uniform_scale":{"on":true,"value":1.0},"visible":true,"volume":1.0},{"caption_info":null,"cartoon":false,"clip":{"alpha":1.0,"flip":{"horizontal":false,"vertical":false},"rotation":0.0,"scale":{"x":1.0,"y":1.0},"transform":{"x":0.0,"y":0.0}},"color_correct_alg_result":"","common_keyframes":[],"desc":"","digital_human_template_group_id":"","enable_adjust":true,"enable_adjust_mask":false,"enable_color_correct_adjust":false,"enable_color_curves":true,"enable_color_match_adjust":false,"enable_color_wheels":true,"enable_hsl":false,"enable_lut":true,"enable_smart_color_adjust":false,"enable_video_mask":true,"extra_material_refs":["9D09BC66-157B-4752-8EF3-C6C52FC51A5D","5E5FD74D-B00E-40fb-BE11-9CA8249C0B09","47B356B9-09CD-47ad-8307-0CFA1C3407C1","D2E3EBA7-4276-484a-86EA-824F6F6517A7","EE5ADB92-0593-4032-A5A2-4D3321924492","1AA3DE03-FAF9-4e41-BBCA-CB34CCC845F6"],"group_id":"","hdr_settings":{"intensity":1.0,"mode":1,"nits":1000},"id":"237828BE-0035-47fb-AE9C-8F45700A45FD","intensifies_audio":false,"is_loop":false,"is_placeholder":false,"is_tone_modify":false,"keyframe_refs":[],"last_nonzero_volume":1.0,"lyric_keyframes":null,"material_id":"A41F99AF-1285-4d1f-B02D-C79D03516640","raw_segment_id":"","render_index":0,"render_timerange":{"duration":0,"start":0},"responsive_layout":{"enable":false,"horizontal_pos_layout":0,"size_layout":0,"target_follow":"","vertical_pos_layout":0},"reverse":false,"source_timerange":{"duration":5000000,"start":0},"speed":1.0,"state":0,"target_timerange":{"duration":5000000,"start":10000000},"template_id":"","template_scene":"default","track_attribute":0,"track_render_index":0,"uniform_scale":{"on":true,"value":1.0},"visible":true,"volume":1.0},{"caption_info":null,"cartoon":false,"clip":{"alpha":1.0,"flip":{"horizontal":false,"vertical":false},"rotation":0.0,"scale":{"x":1.0,"y":1.0},"transform":{"x":0.0,"y":0.0}},"color_correct_alg_result":"","common_keyframes":[],"desc":"","digital_human_template_group_id":"","enable_adjust":true,"enable_adjust_mask":false,"enable_color_correct_adjust":false,"enable_color_curves":true,"enable_color_match_adjust":false,"enable_color_wheels":true,"enable_hsl":false,"enable_lut":true,"enable_smart_color_adjust":false,"enable_video_mask":true,"extra_material_refs":["00674343-C681-447f-8583-BDB08AB63539","B4884B94-F8F9-47dd-90E0-47001194479B","8B9D55D8-85D3-4d9e-BEF6-9B470876D120","7A4BE6B9-E34D-42e5-B2C7-273FC49AF17A","5FC99EF3-EF1B-4254-85CE-577C94B3A7D5","D0828033-8423-4e71-9D09-D1EF2707C9D7"],"group_id":"","hdr_settings":{"intensity":1.0,"mode":1,"nits":1000},"id":"4A558E55-F2AC-4062-A480-8FB24DB6C89B","intensifies_audio":false,"is_loop":false,"is_placeholder":false,"is_tone_modify":false,"keyframe_refs":[],"last_nonzero_volume":1.0,"lyric_keyframes":null,"material_id":"6AFF0D47-F3AF-4d6e-931F-2FEA60331D7E","raw_segment_id":"","render_index":0,"render_timerange":{"duration":0,"start":0},"responsive_layout":{"enable":false,"horizontal_pos_layout":0,"size_layout":0,"target_follow":"","vertical_pos_layout":0},"reverse":false,"source_timerange":{"duration":5000000,"start":0},"speed":1.0,"state":0,"target_timerange":{"duration":5000000,"start":15000000},"template_id":"","template_scene":"default","track_attribute":0,"track_render_index":0,"uniform_scale":{"on":true,"value":1.0},"visible":true,"volume":1.0},{"caption_info":null,"cartoon":false,"clip":{"alpha":1.0,"flip":{"horizontal":false,"vertical":false},"rotation":0.0,"scale":{"x":1.0,"y":1.0},"transform":{"x":0.0,"y":0.0}},"color_correct_alg_result":"","common_keyframes":[],"desc":"","digital_human_template_group_id":"","enable_adjust":true,"enable_adjust_mask":false,"enable_color_correct_adjust":false,"enable_color_curves":true,"enable_color_match_adjust":false,"enable_color_wheels":true,"enable_hsl":false,"enable_lut":true,"enable_smart_color_adjust":false,"enable_video_mask":true,"extra_material_refs":["5696AFFB-FAF0-4115-B5B2-58306CD4C65A","7A76B144-6684-4411-9DBA-CD844EBEA33C","64C74EEF-490F-4962-9AA8-21F3FAD292DA","947BD01F-78DF-4ff4-AD66-AFAA185683FA","0590ACAB-EA03-41f8-8066-BD2E2EF207A1"],"group_id":"","hdr_settings":{"intensity":1.0,"mode":1,"nits":1000},"id":"5E6D4372-A211-4154-B5C1-9666AC6F9A08","intensifies_audio":false,"is_loop":false,"is_placeholder":false,"is_tone_modify":false,"keyframe_refs":[],"last_nonzero_volume":1.0,"lyric_keyframes":null,"material_id":"D42C5A67-1359-4688-8E63-A40D13FB6B7D","raw_segment_id":"","render_index":0,"render_timerange":{"duration":0,"start":0},"responsive_layout":{"enable":false,"horizontal_pos_layout":0,"size_layout":0,"target_follow":"","vertical_pos_layout":0},"reverse":false,"source_timerange":{"duration":5000000,"start":0},"speed":1.0,"state":0,"target_timerange":{"duration":5000000,"start":20000000},"template_id":"","template_scene":"default","track_attribute":0,"track_render_index":0,"uniform_scale":{"on":true,"value":1.0},"visible":true,"volume":1.0},{"caption_info":null,"cartoon":false,"clip":{"alpha":1.0,"flip":{"horizontal":false,"vertical":false},"rotation":0.0,"scale":{"x":1.0,"y":1.0},"transform":{"x":0.0,"y":0.0}},"color_correct_alg_result":"","common_keyframes":[],"desc":"","digital_human_template_group_id":"","enable_adjust":true,"enable_adjust_mask":false,"enable_color_correct_adjust":false,"enable_color_curves":true,"enable_color_match_adjust":false,"enable_color_wheels":true,"enable_hsl":false,"enable_lut":true,"enable_smart_color_adjust":false,"enable_video_mask":true,"extra_material_refs":["59A9E858-B380-478b-96F4-F12F7523A745","A6CA1899-A406-41ac-A634-85617E3DEA7D","01FB7542-E824-47ff-8959-A3B76273A424","02FE71BC-44B5-4b99-ACF7-24F372D06879","D47040E8-872A-4142-B524-8DC7F484A34D","57C70F61-7EA2-4e37-9EAF-FB1CB6915802","73FFC357-E430-49d6-A2D9-2071B7723728"],"group_id":"","hdr_settings":{"intensity":1.0,"mode":1,"nits":1000},"id":"BF8BF6E9-618F-42ba-9175-8311BEE476DC","intensifies_audio":false,"is_loop":false,"is_placeholder":false,"is_tone_modify":false,"keyframe_refs":[],"last_nonzero_volume":1.0,"lyric_keyframes":null,"material_id":"7DC945F4-17DD-400c-B56C-19B69525C023","raw_segment_id":"","render_index":0,"render_timerange":{"duration":0,"start":0},"responsive_layout":{"enable":false,"horizontal_pos_layout":0,"size_layout":0,"target_follow":"","vertical_pos_layout":0},"reverse":false,"source_timerange":{"duration":5000000,"start":0},"speed":1.0,"state":0,"target_timerange":{"duration":5000000,"start":25000000},"template_id":"","template_scene":"default","track_attribute":0,"track_render_index":0,"uniform_scale":{"on":true,"value":1.0},"visible":true,"volume":1.0},{"caption_info":null,"cartoon":false,"clip":{"alpha":1.0,"flip":{"horizontal":false,"vertical":false},"rotation":0.0,"scale":{"x":1.0,"y":1.0},"transform":{"x":0.0,"y":0.0}},"color_correct_alg_result":"","common_keyframes":[],"desc":"","digital_human_template_group_id":"","enable_adjust":true,"enable_adjust_mask":false,"enable_color_correct_adjust":false,"enable_color_curves":true,"enable_color_match_adjust":false,"enable_color_wheels":true,"enable_hsl":false,"enable_lut":true,"enable_smart_color_adjust":false,"enable_video_mask":true,"extra_material_refs":["69A9912D-1006-47cc-8FC9-B212C328508F","2CDC107C-C1F8-4802-AF01-FC372EB230E6","BC72A0E9-4923-4738-8260-A0186437C010","A8D64A06-3D05-4db8-A859-8BB4093931B5","4537ED0F-CC19-469d-BF3B-73E64EC626C2","32D584EA-C496-4982-8F3C-47B7C3763A06","F962A164-100B-46ce-A603-AE8CB929F356"],"group_id":"","hdr_settings":{"intensity":1.0,"mode":1,"nits":1000},"id":"B8D396CB-308B-41e3-A40E-F51EC9621936","intensifies_audio":false,"is_loop":false,"is_placeholder":false,"is_tone_modify":false,"keyframe_refs":[],"last_nonzero_volume":1.0,"lyric_keyframes":null,"material_id":"2E35BEAE-4B09-4653-9725-74DDC52EEAA8","raw_segment_id":"","render_index":0,"render_timerange":{"duration":0,"start":0},"responsive_layout":{"enable":false,"horizontal_pos_layout":0,"size_layout":0,"target_follow":"","vertical_pos_layout":0},"reverse":false,"source_timerange":{"duration":5000000,"start":0},"speed":1.0,"state":0,"target_timerange":{"duration":5000000,"start":30000000},"template_id":"","template_scene":"default","track_attribute":0,"track_render_index":0,"uniform_scale":{"on":true,"value":1.0},"visible":true,"volume":1.0},{"caption_info":null,"cartoon":false,"clip":{"alpha":1.0,"flip":{"horizontal":false,"vertical":false},"rotation":0.0,"scale":{"x":1.0,"y":1.0},"transform":{"x":0.0,"y":0.0}},"color_correct_alg_result":"","common_keyframes":[],"desc":"","digital_human_template_group_id":"","enable_adjust":true,"enable_adjust_mask":false,"enable_color_correct_adjust":false,"enable_color_curves":true,"enable_color_match_adjust":false,"enable_color_wheels":true,"enable_hsl":false,"enable_lut":true,"enable_smart_color_adjust":false,"enable_video_mask":true,"extra_material_refs":["E88575D7-21E1-4c80-A905-70EC78EB7438","8F842B76-C41E-4a3f-AEDB-1427DC1722F5","1C3BAD39-81CD-43f5-B17B-68FBB2FCC7F6","3ACABEA9-E233-484f-9AF8-9E54EC71C3B4","3C2CDC7B-8648-4154-A2C3-67DA5FF59C76","4B58E78B-AFA0-4da9-B8FE-72D00DC77EE0"],"group_id":"","hdr_settings":{"intensity":1.0,"mode":1,"nits":1000},"id":"52BA447D-5835-41a8-B3F7-9C2496C1DF9F","intensifies_audio":false,"is_loop":false,"is_placeholder":false,"is_tone_modify":false,"keyframe_refs":[],"last_nonzero_volume":1.0,"lyric_keyframes":null,"material_id":"78F22A9A-2D91-456a-B21D-F6340A349761","raw_segment_id":"","render_index":0,"render_timerange":{"duration":0,"start":0},"responsive_layout":{"enable":false,"horizontal_pos_layout":0,"size_layout":0,"target_follow":"","vertical_pos_layout":0},"reverse":false,"source_timerange":{"duration":5000000,"start":0},"speed":1.0,"state":0,"target_timerange":{"duration":5000000,"start":35000000},"template_id":"","template_scene":"default","track_attribute":0,"track_render_index":0,"uniform_scale":{"on":true,"value":1.0},"visible":true,"volume":1.0},{"caption_info":null,"cartoon":false,"clip":{"alpha":1.0,"flip":{"horizontal":false,"vertical":false},"rotation":0.0,"scale":{"x":1.0,"y":1.0},"transform":{"x":0.0,"y":0.0}},"color_correct_alg_result":"","common_keyframes":[],"desc":"","digital_human_template_group_id":"","enable_adjust":true,"enable_adjust_mask":false,"enable_color_correct_adjust":false,"enable_color_curves":true,"enable_color_match_adjust":false,"enable_color_wheels":true,"enable_hsl":false,"enable_lut":true,"enable_smart_color_adjust":false,"enable_video_mask":true,"extra_material_refs":["AFA515A9-B810-4359-8A6C-E68FDA372E54","760EBA9A-8E16-4e9c-B4E8-1A7BF3D86681","1F402995-5ECD-448e-802E-65D0D957348F","C46A06FE-FEE4-4674-901A-D12FDE7BD529","3E317FB2-3075-4a8b-A50A-BCC3AFAA0925"],"group_id":"","hdr_settings":{"intensity":1.0,"mode":1,"nits":1000},"id":"F80105CD-6805-4a77-8B8C-2C7388C1AD5C","intensifies_audio":false,"is_loop":false,"is_placeholder":false,"is_tone_modify":false,"keyframe_refs":[],"last_nonzero_volume":1.0,"lyric_keyframes":null,"material_id":"646F1055-5A87-4a55-8A15-9D3D5612C51E","raw_segment_id":"","render_index":0,"render_timerange":{"duration":0,"start":0},"responsive_layout":{"enable":false,"horizontal_pos_layout":0,"size_layout":0,"target_follow":"","vertical_pos_layout":0},"reverse":false,"source_timerange":{"duration":5000000,"start":0},"speed":1.0,"state":0,"target_timerange":{"duration":5000000,"start":40000000},"template_id":"","template_scene":"default","track_attribute":0,"track_render_index":0,"uniform_scale":{"on":true,"value":1.0},"visible":true,"volume":1.0},{"caption_info":null,"cartoon":false,"clip":{"alpha":1.0,"flip":{"horizontal":false,"vertical":false},"rotation":0.0,"scale":{"x":1.0,"y":1.0},"transform":{"x":0.0,"y":0.0}},"color_correct_alg_result":"","common_keyframes":[],"desc":"","digital_human_template_group_id":"","enable_adjust":true,"enable_adjust_mask":false,"enable_color_correct_adjust":false,"enable_color_curves":true,"enable_color_match_adjust":false,"enable_color_wheels":true,"enable_hsl":false,"enable_lut":true,"enable_smart_color_adjust":false,"enable_video_mask":true,"extra_material_refs":["938E5C1C-EA69-4051-958C-8E44354E862E","59D4533C-124A-49a4-B871-72F0B0F7FCE3","96997470-E4FE-42b1-B01A-FA002C534BE2","58330E82-0B70-46e0-B6C3-D4063138F8A1","5D7370F6-A277-4176-82A8-7BF44E8CC39A"],"group_id":"","hdr_settings":{"intensity":1.0,"mode":1,"nits":1000},"id":"2B16E18C-0238-4662-A239-B3F5DDD80503","intensifies_audio":false,"is_loop":false,"is_placeholder":false,"is_tone_modify":false,"keyframe_refs":[],"last_nonzero_volume":1.0,"lyric_keyframes":null,"material_id":"D1E193A0-A2CA-4a4a-82F4-AEFD31764B04","raw_segment_id":"","render_index":0,"render_timerange":{"duration":0,"start":0},"responsive_layout":{"enable":false,"horizontal_pos_layout":0,"size_layout":0,"target_follow":"","vertical_pos_layout":0},"reverse":false,"source_timerange":{"duration":5000000,"start":0},"speed":1.0,"state":0,"target_timerange":{"duration":5000000,"start":45000000},"template_id":"","template_scene":"default","track_attribute":0,"track_render_index":0,"uniform_scale":{"on":true,"value":1.0},"visible":true,"volume":1.0},{"caption_info":null,"cartoon":false,"clip":{"alpha":1.0,"flip":{"horizontal":false,"vertical":false},"rotation":0.0,"scale":{"x":1.0,"y":1.0},"transform":{"x":0.0,"y":0.0}},"color_correct_alg_result":"","common_keyframes":[],"desc":"","digital_human_template_group_id":"","enable_adjust":true,"enable_adjust_mask":false,"enable_color_correct_adjust":false,"enable_color_curves":true,"enable_color_match_adjust":false,"enable_color_wheels":true,"enable_hsl":false,"enable_lut":true,"enable_smart_color_adjust":false,"enable_video_mask":true,"extra_material_refs":["DB0D97DE-55C7-48e3-8936-46BB437D4687","66CD2C17-5783-4c9f-94F2-0C7DAE43DCAE","09843CD3-25C8-4dbb-A1C8-1F45503EA883","248E93F6-33DA-4591-9192-3481DA19AD4A","FF7FEA57-6B39-49ef-A821-3B9FEDC62BC0"],"group_id":"","hdr_settings":{"intensity":1.0,"mode":1,"nits":1000},"id":"F7C5F5E4-5518-4779-8528-1B5758AB8E8A","intensifies_audio":false,"is_loop":false,"is_placeholder":false,"is_tone_modify":false,"keyframe_refs":[],"last_nonzero_volume":1.0,"lyric_keyframes":null,"material_id":"1278D7D6-E36D-4209-8106-3D3760BA9CB4","raw_segment_id":"","render_index":0,"render_timerange":{"duration":0,"start":0},"responsive_layout":{"enable":false,"horizontal_pos_layout":0,"size_layout":0,"target_follow":"","vertical_pos_layout":0},"reverse":false,"source_timerange":{"duration":5000000,"start":0},"speed":1.0,"state":0,"target_timerange":{"duration":5000000,"start":50000000},"template_id":"","template_scene":"default","track_attribute":0,"track_render_index":0,"uniform_scale":{"on":true,"value":1.0},"visible":true,"volume":1.0},{"caption_info":null,"cartoon":false,"clip":{"alpha":1.0,"flip":{"horizontal":false,"vertical":false},"rotation":0.0,"scale":{"x":1.0,"y":1.0},"transform":{"x":0.0,"y":0.0}},"color_correct_alg_result":"","common_keyframes":[],"desc":"","digital_human_template_group_id":"","enable_adjust":true,"enable_adjust_mask":false,"enable_color_correct_adjust":false,"enable_color_curves":true,"enable_color_match_adjust":false,"enable_color_wheels":true,"enable_hsl":false,"enable_lut":true,"enable_smart_color_adjust":false,"enable_video_mask":true,"extra_material_refs":["6547E4CA-47B1-4e7f-BFCB-60D59B8496D0","BE958AD8-0210-4621-A048-67920B1D6523","37A9EA9C-4ABB-47b8-9FEF-9208F5C84BAF","5FBC6C2C-8800-45d5-B74D-C9242C1EE59A","2E0C3B0F-BBAB-4b0e-90CA-D66FFC1BCBBF"],"group_id":"","hdr_settings":{"intensity":1.0,"mode":1,"nits":1000},"id":"EFF4258C-7EE4-4b30-8A52-966AFA97ECEF","intensifies_audio":false,"is_loop":false,"is_placeholder":false,"is_tone_modify":false,"keyframe_refs":[],"last_nonzero_volume":1.0,"lyric_keyframes":null,"material_id":"8C12553A-7166-4218-8E4B-29A8BE5565D7","raw_segment_id":"","render_index":0,"render_timerange":{"duration":0,"start":0},"responsive_layout":{"enable":false,"horizontal_pos_layout":0,"size_layout":0,"target_follow":"","vertical_pos_layout":0},"reverse":false,"source_timerange":{"duration":5000000,"start":0},"speed":1.0,"state":0,"target_timerange":{"duration":5000000,"start":55000000},"template_id":"","template_scene":"default","track_attribute":0,"track_render_index":0,"uniform_scale":{"on":true,"value":1.0},"visible":true,"volume":1.0}],"type":"video"},{"attribute":0,"flag":0,"id":"B180D928-1F63-4881-9A6F-646853EF1C59","is_default_name":true,"name":"","segments":[{"caption_info":null,"cartoon":false,"clip":null,"color_correct_alg_result":"","common_keyframes":[],"desc":"","digital_human_template_group_id":"","enable_adjust":false,"enable_adjust_mask":false,"enable_color_correct_adjust":false,"enable_color_curves":true,"enable_color_match_adjust":false,"enable_color_wheels":true,"enable_hsl":false,"enable_lut":false,"enable_smart_color_adjust":false,"enable_video_mask":true,"extra_material_refs":[],"group_id":"","hdr_settings":null,"id":"A8301AB1-E0EF-4a86-B43E-5F10733A8F69","intensifies_audio":false,"is_loop":false,"is_placeholder":false,"is_tone_modify":false,"keyframe_refs":[],"last_nonzero_volume":1.0,"lyric_keyframes":null,"material_id":"B8BABD7D-C71F-4fdc-850F-D8AC9C563799","raw_segment_id":"","render_index":11000,"render_timerange":{"duration":0,"start":0},"responsive_layout":{"enable":false,"horizontal_pos_layout":0,"size_layout":0,"target_follow":"","vertical_pos_layout":0},"reverse":false,"source_timerange":null,"speed":1.0,"state":0,"target_timerange":{"duration":3000000,"start":40000000},"template_id":"","template_scene":"default","track_attribute":0,"track_render_index":1,"uniform_scale":null,"visible":true,"volume":1.0},{"caption_info":null,"cartoon":false,"clip":null,"color_correct_alg_result":"","common_keyframes":[],"desc":"","digital_human_template_group_id":"","enable_adjust":false,"enable_adjust_mask":false,"enable_color_correct_adjust":false,"enable_color_curves":true,"enable_color_match_adjust":false,"enable_color_wheels":true,"enable_hsl":false,"enable_lut":false,"enable_smart_color_adjust":false,"enable_video_mask":true,"extra_material_refs":[],"group_id":"","hdr_settings":null,"id":"BE9EAB89-1307-41e9-A68D-308EB78B27E8","intensifies_audio":false,"is_loop":false,"is_placeholder":false,"is_tone_modify":false,"keyframe_refs":[],"last_nonzero_volume":1.0,"lyric_keyframes":null,"material_id":"A5869450-32EE-4a9f-B570-22BB355D102F","raw_segment_id":"","render_index":11001,"render_timerange":{"duration":0,"start":0},"responsive_layout":{"enable":false,"horizontal_pos_layout":0,"size_layout":0,"target_follow":"","vertical_pos_layout":0},"reverse":false,"source_timerange":null,"speed":1.0,"state":0,"target_timerange":{"duration":3000000,"start":45000000},"template_id":"","template_scene":"default","track_attribute":0,"track_render_index":1,"uniform_scale":null,"visible":true,"volume":1.0},{"caption_info":null,"cartoon":false,"clip":null,"color_correct_alg_result":"","common_keyframes":[],"desc":"","digital_human_template_group_id":"","enable_adjust":false,"enable_adjust_mask":false,"enable_color_correct_adjust":false,"enable_color_curves":true,"enable_color_match_adjust":false,"enable_color_wheels":true,"enable_hsl":false,"enable_lut":false,"enable_smart_color_adjust":false,"enable_video_mask":true,"extra_material_refs":[],"group_id":"","hdr_settings":null,"id":"E5698519-C413-469e-9704-E786E3677861","intensifies_audio":false,"is_loop":false,"is_placeholder":false,"is_tone_modify":false,"keyframe_refs":[],"last_nonzero_volume":1.0,"lyric_keyframes":null,"material_id":"1C78E724-317C-471c-BCCF-BFEC7941238E","raw_segment_id":"","render_index":11002,"render_timerange":{"duration":0,"start":0},"responsive_layout":{"enable":false,"horizontal_pos_layout":0,"size_layout":0,"target_follow":"","vertical_pos_layout":0},"reverse":false,"source_timerange":null,"speed":1.0,"state":0,"target_timerange":{"duration":3000000,"start":50000000},"template_id":"","template_scene":"default","track_attribute":0,"track_render_index":1,"uniform_scale":null,"visible":true,"volume":1.0},{"caption_info":null,"cartoon":false,"clip":null,"color_correct_alg_result":"","common_keyframes":[],"desc":"","digital_human_template_group_id":"","enable_adjust":false,"enable_adjust_mask":false,"enable_color_correct_adjust":false,"enable_color_curves":true,"enable_color_match_adjust":false,"enable_color_wheels":true,"enable_hsl":false,"enable_lut":false,"enable_smart_color_adjust":false,"enable_video_mask":true,"extra_material_refs":[],"group_id":"","hdr_settings":null,"id":"9B9F44F5-086D-49ef-8559-937AB5F70496","intensifies_audio":false,"is_loop":false,"is_placeholder":false,"is_tone_modify":false,"keyframe_refs":[],"last_nonzero_volume":1.0,"lyric_keyframes":null,"material_id":"1C628CB7-C276-4b06-ACB8-34A8A599EF5F","raw_segment_id":"","render_index":11003,"render_timerange":{"duration":0,"start":0},"responsive_layout":{"enable":false,"horizontal_pos_layout":0,"size_layout":0,"target_follow":"","vertical_pos_layout":0},"reverse":false,"source_timerange":null,"speed":1.0,"state":0,"target_timerange":{"duration":3000000,"start":55000000},"template_id":"","template_scene":"default","track_attribute":0,"track_render_index":1,"uniform_scale":null,"visible":true,"volume":1.0}],"type":"effect"}],"uneven_animation_template_info":{"composition":"","content":"","order":"","sub_template_info_list":[]},"update_time":0,"version":360000}